<svg width="40" height="40" viewBox="0 0 40 40" fill="none" xmlns="http://www.w3.org/2000/svg">
<g clip-path="url(#clip0_107_1485)">
<rect width="40" height="40" rx="20" fill="#8744E1"/>
<g filter="url(#filter0_d_107_1485)">
<path d="M34.6478 20.0842C34.5218 19.5782 34.315 19.0958 34.0356 18.6556C33.7367 18.2151 33.3797 17.817 32.9744 17.4719C32.1627 16.7697 31.1983 16.2666 30.158 16.0025L29.7091 15.9209C29.9984 14.8128 29.8936 13.6385 29.4126 12.5992C28.9316 11.5598 28.1043 10.7199 27.0724 10.2232C26.0404 9.72648 24.8679 9.60387 23.7555 9.87635C22.6431 10.1488 21.66 10.7994 20.9744 11.7168C20.5379 10.6673 19.7322 9.81378 18.7096 9.31749C17.6869 8.8212 16.518 8.71643 15.4233 9.02295H15.2601C14.8639 9.13234 14.4906 9.31207 14.158 9.55356C13.333 10.1066 12.7008 10.903 12.3497 11.8322C11.9985 12.7613 11.9458 13.7768 12.1989 14.7372L11.5458 14.6964H10.9335C9.28112 14.8116 7.74094 15.5743 6.64783 16.8189C6.6039 16.9292 6.53387 17.0272 6.44375 17.1046C6.44375 17.1154 6.43945 17.1258 6.4318 17.1334C6.42414 17.1411 6.41376 17.1454 6.40294 17.1454C5.82392 17.8717 5.46931 18.7512 5.38253 19.676C5.056 22.125 6.60702 24.6964 9.17845 25.7576C9.09681 29.2678 9.01518 32.7781 8.97436 36.2883C12.2142 38.4461 16.0204 39.5965 19.9131 39.5944C23.3455 39.5956 26.7198 38.7098 29.7091 37.0229L29.3417 27.676C33.2601 26.7372 35.4233 23.023 34.6478 20.0842ZM23.6682 14.2883C23.9131 13.5127 24.607 13.023 25.2193 13.1862C25.8315 13.3495 26.0764 14.1658 25.8315 14.9821C25.5866 15.7985 24.8927 16.2883 24.2805 16.0842C23.6682 15.8801 23.4233 15.1046 23.6682 14.2883ZM15.8723 11.7985C16.4438 11.5944 17.1784 12.0434 17.4642 12.8597C17.7499 13.676 17.505 14.4515 16.9335 14.6556C16.3621 14.8597 15.6274 14.4107 15.3417 13.6352C15.056 12.8597 15.2601 12.0434 15.8723 11.7985ZM12.5254 20.574C12.0764 21.023 11.2193 20.8597 10.6478 20.2474C10.0764 19.6352 9.99477 18.7781 10.4846 18.3291C10.6627 18.1666 10.8966 18.0789 11.1376 18.0842H11.4233C11.7883 18.1719 12.1166 18.3717 12.3621 18.6556C12.5775 18.8612 12.7273 19.1259 12.7926 19.4164C12.858 19.7069 12.836 20.0102 12.7295 20.2883L12.5254 20.574ZM24.7703 23.5127C23.9948 25.4311 20.1172 23.4719 19.8315 23.5127C18.6478 23.5944 16.0356 25.023 14.8927 23.5127C14.3621 22.8189 14.8111 21.5536 15.7907 20.4107C16.7703 19.2678 18.5254 18.0842 20.1989 18.1658C21.8723 18.2474 23.5866 19.7168 24.4029 21.1862C25.2193 22.6556 25.0152 22.9005 24.7703 23.5127ZM29.3009 21.5536C28.9967 21.6669 28.6635 21.6763 28.3533 21.5804C28.0432 21.4844 27.7736 21.2884 27.5866 21.023V20.9413C27.563 20.9204 27.5484 20.8911 27.5458 20.8597C27.3825 20.2474 27.8723 19.5536 28.6886 19.3495C28.8573 19.2834 29.0385 19.2555 29.2193 19.2678C29.4755 19.2403 29.7338 19.2971 29.9548 19.4297C30.1758 19.5624 30.3475 19.7635 30.4438 20.0025C30.6478 20.6148 30.1172 21.3087 29.3009 21.5536Z" fill="white"/>
<path d="M34.6478 20.0842C34.5218 19.5782 34.315 19.0958 34.0356 18.6556C33.7367 18.2151 33.3797 17.817 32.9744 17.4719C32.1627 16.7697 31.1983 16.2666 30.158 16.0025L29.7091 15.9209C29.9984 14.8128 29.8936 13.6385 29.4126 12.5992C28.9316 11.5598 28.1043 10.7199 27.0724 10.2232C26.0404 9.72648 24.8679 9.60387 23.7555 9.87635C22.6431 10.1488 21.66 10.7994 20.9744 11.7168C20.5379 10.6673 19.7322 9.81378 18.7096 9.31749C17.6869 8.8212 16.518 8.71643 15.4233 9.02295H15.2601C14.8639 9.13234 14.4906 9.31207 14.158 9.55356C13.333 10.1066 12.7008 10.903 12.3497 11.8322C11.9985 12.7613 11.9458 13.7768 12.1989 14.7372L11.5458 14.6964H10.9335C9.28112 14.8116 7.74094 15.5743 6.64783 16.8189C6.6039 16.9292 6.53387 17.0272 6.44375 17.1046C6.44375 17.1154 6.43945 17.1258 6.4318 17.1334C6.42414 17.1411 6.41376 17.1454 6.40294 17.1454C5.82392 17.8717 5.46931 18.7512 5.38253 19.676C5.056 22.125 6.60702 24.6964 9.17845 25.7576C9.09681 29.2678 9.01518 32.7781 8.97436 36.2883C12.2142 38.4461 16.0204 39.5965 19.9131 39.5944C23.3455 39.5956 26.7198 38.7098 29.7091 37.0229L29.3417 27.676C33.2601 26.7372 35.4233 23.023 34.6478 20.0842ZM23.6682 14.2883C23.9131 13.5127 24.607 13.023 25.2193 13.1862C25.8315 13.3495 26.0764 14.1658 25.8315 14.9821C25.5866 15.7985 24.8927 16.2883 24.2805 16.0842C23.6682 15.8801 23.4233 15.1046 23.6682 14.2883ZM15.8723 11.7985C16.4438 11.5944 17.1784 12.0434 17.4642 12.8597C17.7499 13.676 17.505 14.4515 16.9335 14.6556C16.3621 14.8597 15.6274 14.4107 15.3417 13.6352C15.056 12.8597 15.2601 12.0434 15.8723 11.7985ZM12.5254 20.574C12.0764 21.023 11.2193 20.8597 10.6478 20.2474C10.0764 19.6352 9.99477 18.7781 10.4846 18.3291C10.6627 18.1666 10.8966 18.0789 11.1376 18.0842H11.4233C11.7883 18.1719 12.1166 18.3717 12.3621 18.6556C12.5775 18.8612 12.7273 19.1259 12.7926 19.4164C12.858 19.7069 12.836 20.0102 12.7295 20.2883L12.5254 20.574ZM24.7703 23.5127C23.9948 25.4311 20.1172 23.4719 19.8315 23.5127C18.6478 23.5944 16.0356 25.023 14.8927 23.5127C14.3621 22.8189 14.8111 21.5536 15.7907 20.4107C16.7703 19.2678 18.5254 18.0842 20.1989 18.1658C21.8723 18.2474 23.5866 19.7168 24.4029 21.1862C25.2193 22.6556 25.0152 22.9005 24.7703 23.5127ZM29.3009 21.5536C28.9967 21.6669 28.6635 21.6763 28.3533 21.5804C28.0432 21.4844 27.7736 21.2884 27.5866 21.023V20.9413C27.563 20.9204 27.5484 20.8911 27.5458 20.8597C27.3825 20.2474 27.8723 19.5536 28.6886 19.3495C28.8573 19.2834 29.0385 19.2555 29.2193 19.2678C29.4755 19.2403 29.7338 19.2971 29.9548 19.4297C30.1758 19.5624 30.3475 19.7635 30.4438 20.0025C30.6478 20.6148 30.1172 21.3087 29.3009 21.5536Z" stroke="#B684FA" stroke-width="2.22222" stroke-linecap="round" stroke-linejoin="round"/>
</g>
<path d="M6.64822 16.8599C6.60428 16.9702 6.53426 17.0682 6.44414 17.1456C6.44414 17.1564 6.43984 17.1668 6.43218 17.1744C6.42453 17.1821 6.41415 17.1864 6.40332 17.1864L6.64822 16.8599Z" fill="white"/>
<path d="M12.7296 20.3291L12.5255 20.574C12.0765 21.023 11.2194 20.8597 10.6888 20.2475C10.1582 19.6352 9.99491 18.7781 10.4847 18.3291C10.6629 18.1666 10.8967 18.0789 11.1378 18.0842H11.4235C11.7884 18.1719 12.1167 18.3717 12.3623 18.6556C12.5858 18.8645 12.7406 19.1364 12.8062 19.4352C12.8718 19.7341 12.8451 20.0458 12.7296 20.3291V20.3291Z" fill="white"/>
<path d="M24.7705 23.513C23.995 25.4314 20.1174 23.4722 19.8317 23.513C18.648 23.5947 16.0358 25.0232 14.8929 23.513C14.3623 22.8192 14.8113 21.5539 15.7909 20.411C16.7705 19.2681 18.5256 18.0845 20.199 18.1661C21.8725 18.2477 23.6276 19.7171 24.4031 21.1865C25.1786 22.6559 25.0154 22.9008 24.7705 23.513Z" fill="white"/>
<path d="M16.9338 14.6558C16.3624 14.9007 15.6277 14.4109 15.3419 13.6353C15.0562 12.8598 15.2603 12.0435 15.8726 11.7986C16.4848 11.5537 17.1787 12.0435 17.4644 12.8598C17.7501 13.6762 17.5052 14.4517 16.9338 14.6558Z" fill="white"/>
<path d="M25.8318 14.982C25.5869 15.7983 24.893 16.2881 24.2808 16.0841C23.6686 15.88 23.4237 15.1045 23.6686 14.2881C23.9135 13.4718 24.6073 13.0228 25.2196 13.1861C25.8318 13.3494 26.0767 14.1657 25.8318 14.982Z" fill="white"/>
<path d="M29.3012 21.5536C28.5665 21.7577 27.8726 21.5128 27.6277 21.023C27.5872 20.9419 27.5872 20.9419 27.5466 20.8605C27.3828 20.2475 27.8726 19.5536 28.689 19.3495C28.8576 19.2834 29.0388 19.2555 29.2196 19.2679C29.4806 19.2442 29.7425 19.3022 29.9692 19.4338C30.1958 19.5654 30.376 19.7641 30.4849 20.0026C30.6481 20.6148 30.1175 21.3087 29.3012 21.5536Z" fill="white"/>
<path d="M16.9338 14.6558C16.3624 14.9007 15.6277 14.4109 15.3419 13.6353C15.0562 12.8598 15.2603 12.0435 15.8726 11.7986C16.4848 11.5537 17.1787 12.0435 17.4644 12.8598C17.7501 13.6762 17.5052 14.4517 16.9338 14.6558Z" fill="#B684FA"/>
<path d="M15.4236 9.02298H15.2603C14.8641 9.13237 14.4908 9.3121 14.1583 9.55359C13.8582 9.46156 13.5803 9.30873 13.3419 9.10461C12.7297 8.53319 12.5664 7.67604 13.0154 7.22706C13.4644 6.77808 14.2807 6.85972 14.893 7.43114C15.1289 7.61427 15.3052 7.86325 15.3997 8.14659C15.4941 8.42993 15.5024 8.73492 15.4236 9.02298V9.02298Z" fill="white"/>
<path d="M25.8318 14.982C25.5869 15.7983 24.893 16.2881 24.2808 16.0841C23.6686 15.88 23.4237 15.1045 23.6686 14.2881C23.9135 13.4718 24.6073 13.0228 25.2196 13.1861C25.8318 13.3494 26.0767 14.1657 25.8318 14.982Z" fill="#B684FA"/>
<path d="M29.3012 21.5536C28.5665 21.7577 27.8726 21.5128 27.6277 21.023C27.5872 20.9419 27.5872 20.9419 27.5466 20.8605C27.3828 20.2475 27.8726 19.5536 28.689 19.3495C28.8576 19.2834 29.0388 19.2555 29.2196 19.2679C29.4806 19.2442 29.7425 19.3022 29.9692 19.4338C30.1958 19.5654 30.376 19.7641 30.4849 20.0026C30.6481 20.6148 30.1175 21.3087 29.3012 21.5536Z" fill="#B684FA"/>
<path d="M34.9746 18.3292C34.6997 18.5262 34.3737 18.6396 34.0358 18.6557C33.7489 18.206 33.3904 17.8062 32.9746 17.472C33.0813 17.062 33.3264 16.7015 33.6685 16.4516C34.3624 15.9618 35.2195 16.0026 35.5869 16.5332C35.9542 17.0639 35.6685 17.8394 34.9746 18.3292Z" fill="white"/>
<path d="M29.2145 9.71896C29.7816 9.10175 29.8628 8.25347 29.3957 7.82427C28.9286 7.39506 28.0902 7.54747 27.523 8.16467C26.9559 8.78188 26.8747 9.63017 27.3418 10.0594C27.8089 10.4886 28.6473 10.3362 29.2145 9.71896Z" fill="white"/>
<path d="M12.7296 20.3291L12.5255 20.574C12.0765 21.023 11.2194 20.8597 10.6888 20.2475C10.1582 19.6352 9.99491 18.7781 10.4847 18.3291C10.6629 18.1666 10.8967 18.0789 11.1378 18.0842H11.4235C11.7884 18.1719 12.1167 18.3717 12.3623 18.6556C12.5858 18.8645 12.7406 19.1364 12.8062 19.4352C12.8718 19.7341 12.8451 20.0458 12.7296 20.3291V20.3291Z" fill="#B684FA"/>
<path d="M6.64805 16.8595C6.60411 16.9698 6.53409 17.0678 6.44397 17.1452C6.44397 17.156 6.43967 17.1664 6.43201 17.174C6.42436 17.1817 6.41398 17.186 6.40315 17.186C5.91336 17.5533 5.13785 17.3901 4.56642 16.8186C3.99499 16.2472 3.91336 15.3493 4.40315 14.9003C4.89295 14.4513 5.70927 14.6554 6.2807 15.2676C6.48814 15.4698 6.63307 15.7273 6.6982 16.0096C6.76333 16.2918 6.74593 16.5868 6.64805 16.8595V16.8595Z" fill="white"/>
<path d="M24.7705 23.513C23.995 25.4314 20.1174 23.4722 19.8317 23.513C18.648 23.5947 16.0358 25.0232 14.8929 23.513C14.3623 22.8192 14.8113 21.5539 15.7909 20.411C16.7705 19.2681 18.5256 18.0845 20.199 18.1661C21.8725 18.2477 23.6276 19.7171 24.4031 21.1865C25.1786 22.6559 25.0154 22.9008 24.7705 23.513Z" fill="#B684FA"/>
<path d="M14.8521 28.5332C16.2365 29.2883 17.7684 29.7339 19.3418 29.8393C20.6964 29.9092 22.0523 29.7293 23.3418 29.3087" stroke="#B684FA" stroke-width="2.22222" stroke-linecap="round" stroke-linejoin="round"/>
</g>
<defs>
<filter id="filter0_d_107_1485" x="-0.216417" y="7.73926" width="40.5783" height="41.8552" filterUnits="userSpaceOnUse" color-interpolation-filters="sRGB">
<feFlood flood-opacity="0" result="BackgroundImageFix"/>
<feColorMatrix in="SourceAlpha" type="matrix" values="0 0 0 0 0 0 0 0 0 0 0 0 0 0 0 0 0 0 127 0" result="hardAlpha"/>
<feOffset dy="4.44444"/>
<feGaussianBlur stdDeviation="2.22222"/>
<feComposite in2="hardAlpha" operator="out"/>
<feColorMatrix type="matrix" values="0 0 0 0 0 0 0 0 0 0 0 0 0 0 0 0 0 0 0.25 0"/>
<feBlend mode="normal" in2="BackgroundImageFix" result="effect1_dropShadow_107_1485"/>
<feBlend mode="normal" in="SourceGraphic" in2="effect1_dropShadow_107_1485" result="shape"/>
</filter>
<clipPath id="clip0_107_1485">
<rect width="40" height="40" rx="20" fill="white"/>
</clipPath>
</defs>
</svg>
