<svg width="173" height="67" viewBox="0 0 173 67" fill="none" xmlns="http://www.w3.org/2000/svg">
<path d="M5.71094 21.4468H14.6973C16.8249 21.4468 18.6865 21.0199 20.2822 20.166C21.8779 19.3122 23.1167 18.1084 23.9985 16.5547C24.8944 15.001 25.3423 13.1813 25.3423 11.0957V11.0537C25.3423 8.9821 24.8944 7.16943 23.9985 5.61572C23.1167 4.06201 21.8779 2.85824 20.2822 2.00439C18.6865 1.13656 16.8249 0.702637 14.6973 0.702637H5.71094V5.7207H13.1436C14.9632 5.7207 16.377 6.18262 17.3848 7.10645C18.4066 8.03027 18.9175 9.35303 18.9175 11.0747V11.1167C18.9175 12.8384 18.4066 14.1681 17.3848 15.106C16.377 16.0298 14.9632 16.4917 13.1436 16.4917H5.71094V21.4468ZM2.51953 31H8.86035V0.702637H2.51953V31ZM38.3229 31.4619C39.9326 31.4619 41.3324 31.252 42.5221 30.832C43.7259 30.4121 44.7407 29.8522 45.5666 29.1523C46.4064 28.4525 47.0713 27.6826 47.5612 26.8428C48.0511 26.0029 48.38 25.1701 48.548 24.3442L48.611 24.1133H42.984L42.9421 24.2393C42.8021 24.6592 42.5361 25.0721 42.1442 25.478C41.7523 25.884 41.2484 26.2199 40.6325 26.4858C40.0166 26.7518 39.2887 26.8848 38.4489 26.8848C37.3851 26.8848 36.4683 26.6538 35.6984 26.1919C34.9285 25.716 34.3337 25.0371 33.9137 24.1553C33.5078 23.2734 33.3048 22.2096 33.3048 20.9639V18.5913C33.3048 17.3035 33.5078 16.2188 33.9137 15.3369C34.3337 14.4411 34.9075 13.7622 35.6354 13.3003C36.3773 12.8384 37.2241 12.6074 38.1759 12.6074C39.1278 12.6074 39.9606 12.8314 40.6745 13.2793C41.4023 13.7272 41.9692 14.3991 42.3752 15.2949C42.7811 16.1768 42.984 17.2756 42.984 18.5913V20.9429L45.9025 17.3315H30.2604V21.1948H48.8V19.3052C48.8 17.0376 48.359 15.057 47.4772 13.3633C46.6094 11.6696 45.3706 10.3608 43.7609 9.43701C42.1652 8.49919 40.2685 8.03027 38.071 8.03027C35.8734 8.03027 33.9627 8.51318 32.339 9.479C30.7293 10.4308 29.4766 11.7886 28.5807 13.5522C27.6989 15.3019 27.258 17.3735 27.258 19.7671V19.7881C27.258 22.1816 27.6989 24.2533 28.5807 26.0029C29.4766 27.7526 30.7503 29.1034 32.402 30.0552C34.0537 30.993 36.0273 31.4619 38.3229 31.4619ZM61.1297 31.4619C61.7736 31.4619 62.3405 31.4339 62.8304 31.3779C63.3343 31.3359 63.7542 31.2869 64.0902 31.231V26.7378C63.9082 26.7658 63.7122 26.7938 63.5023 26.8218C63.2923 26.8358 63.0474 26.8428 62.7674 26.8428C61.8436 26.8428 61.1437 26.6398 60.6678 26.2339C60.2059 25.814 59.9749 25.0791 59.9749 24.0293V13.1113H64.0902V8.49219H59.9749V2.99121H53.7811V8.49219H50.6527V13.1113H53.7811V24.7012C53.7811 27.1087 54.383 28.8374 55.5867 29.8872C56.7905 30.937 58.6382 31.4619 61.1297 31.4619ZM76.9448 31.4619C78.8764 31.4619 80.5771 31.161 82.0469 30.5591C83.5306 29.9432 84.6924 29.0894 85.5322 27.9976C86.372 26.9058 86.792 25.625 86.792 24.1553V24.1343C86.792 22.4826 86.2741 21.1668 85.2383 20.187C84.2164 19.2072 82.5228 18.4723 80.1572 17.9824L76.3359 17.1636C75.5801 16.9956 74.9782 16.7996 74.5303 16.5757C74.0823 16.3517 73.7604 16.0928 73.5644 15.7988C73.3825 15.4909 73.2915 15.1479 73.2915 14.77V14.749C73.2915 14.2591 73.4315 13.8392 73.7114 13.4893C73.9914 13.1253 74.3903 12.8454 74.9082 12.6494C75.4261 12.4535 76.035 12.3555 76.7348 12.3555C77.8686 12.3555 78.7575 12.6284 79.4013 13.1743C80.0592 13.7062 80.4372 14.3781 80.5351 15.1899L80.5561 15.3579H86.2041V15.1479C86.1621 13.8322 85.7632 12.6354 85.0073 11.5576C84.2654 10.4798 83.1946 9.62598 81.7949 8.99609C80.4092 8.35221 78.7225 8.03027 76.7348 8.03027C74.8312 8.03027 73.1655 8.32422 71.7378 8.91211C70.324 9.486 69.2322 10.2979 68.4624 11.3477C67.6925 12.3975 67.3076 13.6432 67.3076 15.085V15.106C67.3076 16.2257 67.5525 17.2196 68.0425 18.0874C68.5324 18.9412 69.2602 19.6621 70.2261 20.25C71.2059 20.8239 72.4236 21.2648 73.8794 21.5728L77.7007 22.3706C78.8065 22.6226 79.5763 22.9305 80.0102 23.2944C80.4442 23.6584 80.6611 24.1413 80.6611 24.7432V24.7642C80.6611 25.2541 80.5071 25.674 80.1992 26.0239C79.9053 26.3739 79.4853 26.6468 78.9394 26.8428C78.3935 27.0247 77.7287 27.1157 76.9448 27.1157C75.727 27.1157 74.7752 26.8708 74.0893 26.3809C73.4035 25.891 72.9625 25.2051 72.7666 24.3232L72.7246 24.1343H66.7407L66.7617 24.3232C66.9297 25.737 67.4196 26.9827 68.2314 28.0605C69.0573 29.1243 70.1981 29.9572 71.6538 30.5591C73.1095 31.161 74.8732 31.4619 76.9448 31.4619ZM93.2218 31.3569C94.1736 31.3569 94.9785 31.028 95.6364 30.3701C96.2942 29.7122 96.6232 28.9074 96.6232 27.9556C96.6232 27.0037 96.2942 26.1989 95.6364 25.541C94.9785 24.8831 94.1736 24.5542 93.2218 24.5542C92.27 24.5542 91.4651 24.8831 90.8073 25.541C90.1494 26.1989 89.8204 27.0037 89.8204 27.9556C89.8204 28.9074 90.1494 29.7122 90.8073 30.3701C91.4651 31.028 92.27 31.3569 93.2218 31.3569Z" fill="url(#paint0_linear_13_3137)"/>
<path d="M7.1543 66H8.29834L14.502 45.0527H14.5342L20.7378 66H21.8818L28.3755 42.7485H27.0542L21.3018 63.873H21.2695L15.1304 42.7485H13.9058L7.7666 63.873H7.73438L1.99805 42.7485H0.660645L7.1543 66ZM31.2153 66H32.456V49.2422H31.2153V66ZM31.8276 45.9551C32.0962 45.9551 32.3217 45.8638 32.5044 45.6812C32.6977 45.4878 32.7944 45.2622 32.7944 45.0044C32.7944 44.7358 32.6977 44.5103 32.5044 44.3276C32.3217 44.145 32.0962 44.0537 31.8276 44.0537C31.5698 44.0537 31.3442 44.145 31.1508 44.3276C30.9575 44.5103 30.8608 44.7358 30.8608 45.0044C30.8608 45.2622 30.9575 45.4878 31.1508 45.6812C31.3442 45.8638 31.5698 45.9551 31.8276 45.9551ZM40.8871 66.2739C41.1235 66.2739 41.349 66.2632 41.5639 66.2417C41.7895 66.2202 41.9775 66.188 42.1279 66.145V65.1138C42.0097 65.1353 41.8593 65.1567 41.6767 65.1782C41.5048 65.189 41.3114 65.1943 41.0966 65.1943C40.2695 65.1943 39.6572 64.9849 39.2597 64.5659C38.8622 64.1362 38.6635 63.4326 38.6635 62.4551V50.3218H42.1279V49.2422H38.6635V44.7144H37.4067V49.2422H34.9091V50.3218H37.4067V62.5195C37.4067 63.7979 37.6913 64.7432 38.2607 65.3555C38.8407 65.9678 39.7162 66.2739 40.8871 66.2739ZM45.4349 66H46.6757V56.0098C46.6757 54.8389 46.9066 53.813 47.3685 52.9321C47.8304 52.0513 48.475 51.3638 49.3021 50.8696C50.14 50.3647 51.1014 50.1123 52.1864 50.1123C53.7977 50.1123 55.0653 50.5957 55.9891 51.5625C56.9237 52.5293 57.391 53.9312 57.391 55.7681V66H58.6317V55.623C58.6317 54.2373 58.3793 53.0503 57.8744 52.062C57.3803 51.0737 56.6766 50.3164 55.7636 49.79C54.8505 49.2529 53.7709 48.9844 52.5248 48.9844C51.0746 48.9844 49.8392 49.3442 48.8187 50.064C47.7982 50.7729 47.0946 51.686 46.7079 52.8032H46.6757V42.7485H45.4349V66ZM70.1604 66H77.1053C78.9314 66 80.4461 65.7529 81.6492 65.2588C82.8523 64.7539 83.7547 64.0396 84.3562 63.1157C84.9686 62.1919 85.2747 61.1016 85.2747 59.8447V59.8125C85.2747 58.6846 85.0061 57.707 84.469 56.8799C83.9427 56.0527 83.2337 55.3921 82.3421 54.8979C81.4612 54.3931 80.4837 54.0762 79.4095 53.9473V53.8989C80.3548 53.7271 81.1712 53.3887 81.8587 52.8838C82.5569 52.3682 83.094 51.729 83.47 50.9663C83.8567 50.2036 84.0501 49.3604 84.0501 48.4365V48.4043C84.0501 47.2764 83.7654 46.2935 83.1961 45.4556C82.6268 44.6069 81.8211 43.9463 80.7791 43.4736C79.7478 42.9902 78.5286 42.7485 77.1214 42.7485H70.1604V43.8926H76.9119C78.7273 43.8926 80.1561 44.3115 81.198 45.1494C82.2508 45.9766 82.7771 47.0938 82.7771 48.501V48.5332C82.7771 50.0479 82.2186 51.251 81.1014 52.1426C79.9842 53.0342 78.5018 53.48 76.6541 53.48H70.1604V54.6079H76.8797C78.3191 54.6079 79.5706 54.8174 80.6341 55.2363C81.6976 55.6445 82.5193 56.2354 83.0994 57.0088C83.6902 57.7822 83.9856 58.7061 83.9856 59.7803V59.8125C83.9856 61.3594 83.4109 62.5894 82.2615 63.5024C81.1121 64.4048 79.345 64.856 76.9603 64.856H70.1604V66ZM69.532 66H70.7889V42.7485H69.532V66ZM94.8176 66.2739C95.7092 66.2739 96.531 66.1611 97.283 65.9355C98.0457 65.6992 98.7224 65.3662 99.3132 64.9365C99.9041 64.5068 100.393 63.9912 100.78 63.3896C101.177 62.7773 101.462 62.0952 101.634 61.3433L101.666 61.1982H100.409L100.377 61.3271C100.162 62.1113 99.802 62.7935 99.2971 63.3735C98.803 63.9429 98.1799 64.3833 97.428 64.6948C96.676 64.9956 95.8113 65.146 94.8337 65.146C93.5877 65.146 92.492 64.856 91.5466 64.2759C90.6121 63.6958 89.8816 62.8472 89.3552 61.73C88.8396 60.6128 88.5818 59.2485 88.5818 57.6372V57.2183C88.5818 55.7573 88.8396 54.4951 89.3552 53.4316C89.8709 52.3682 90.5798 51.5464 91.4822 50.9663C92.3953 50.3862 93.4426 50.0962 94.6243 50.0962C95.8059 50.0962 96.8479 50.3862 97.7503 50.9663C98.6633 51.5356 99.3723 52.3521 99.8772 53.4155C100.393 54.479 100.651 55.7466 100.651 57.2183V57.6372L101.295 56.7832H87.9534V57.8306H101.875V57.2344C101.875 55.5586 101.569 54.103 100.957 52.8677C100.355 51.6323 99.512 50.6763 98.427 49.9995C97.342 49.312 96.0745 48.9683 94.6243 48.9683C93.1848 48.9683 91.9172 49.3174 90.8215 50.0156C89.7258 50.7139 88.8718 51.7129 88.2595 53.0127C87.6472 54.3018 87.3411 55.8379 87.3411 57.6211V57.6372C87.3411 59.4204 87.6472 60.9619 88.2595 62.2617C88.8826 63.5508 89.7527 64.5444 90.8699 65.2427C91.9871 65.9302 93.303 66.2739 94.8176 66.2739ZM104.908 66H106.149V55.9937C106.149 54.8228 106.38 53.7969 106.842 52.916C107.304 52.0352 107.948 51.3477 108.776 50.8535C109.613 50.3594 110.586 50.1123 111.692 50.1123C113.293 50.1123 114.544 50.5796 115.447 51.5142C116.349 52.4487 116.8 53.813 116.8 55.6069V66H118.041V55.4619C118.041 53.4102 117.498 51.8203 116.413 50.6924C115.339 49.5537 113.862 48.9844 111.982 48.9844C110.521 48.9844 109.286 49.3389 108.276 50.0479C107.277 50.7568 106.584 51.6484 106.197 52.7227H106.149V49.2422H104.908V66ZM128.438 66.2739C129.329 66.2739 130.151 66.1611 130.903 65.9355C131.666 65.6992 132.342 65.3662 132.933 64.9365C133.524 64.5068 134.013 63.9912 134.4 63.3896C134.797 62.7773 135.082 62.0952 135.254 61.3433L135.286 61.1982H134.029L133.997 61.3271C133.782 62.1113 133.422 62.7935 132.917 63.3735C132.423 63.9429 131.8 64.3833 131.048 64.6948C130.296 64.9956 129.431 65.146 128.454 65.146C127.208 65.146 126.112 64.856 125.167 64.2759C124.232 63.6958 123.502 62.8472 122.975 61.73C122.46 60.6128 122.202 59.2485 122.202 57.6372V57.2183C122.202 55.7573 122.46 54.4951 122.975 53.4316C123.491 52.3682 124.2 51.5464 125.102 50.9663C126.015 50.3862 127.063 50.0962 128.244 50.0962C129.426 50.0962 130.468 50.3862 131.37 50.9663C132.283 51.5356 132.992 52.3521 133.497 53.4155C134.013 54.479 134.271 55.7466 134.271 57.2183V57.6372L134.915 56.7832H121.573V57.8306H135.495V57.2344C135.495 55.5586 135.189 54.103 134.577 52.8677C133.975 51.6323 133.132 50.6763 132.047 49.9995C130.962 49.312 129.695 48.9683 128.244 48.9683C126.805 48.9683 125.537 49.3174 124.442 50.0156C123.346 50.7139 122.492 51.7129 121.88 53.0127C121.267 54.3018 120.961 55.8379 120.961 57.6211V57.6372C120.961 59.4204 121.267 60.9619 121.88 62.2617C122.503 63.5508 123.373 64.5444 124.49 65.2427C125.607 65.9302 126.923 66.2739 128.438 66.2739ZM139.35 66H140.591V50.3218H144.41V49.2422H140.575V46.5352C140.575 45.4609 140.822 44.6982 141.316 44.2471C141.81 43.7852 142.487 43.5542 143.346 43.5542C143.572 43.5542 143.787 43.5649 143.991 43.5864C144.195 43.5972 144.383 43.624 144.555 43.667V42.6035C144.404 42.5713 144.206 42.5444 143.959 42.5229C143.722 42.4907 143.47 42.4746 143.201 42.4746C142.396 42.4746 141.703 42.6143 141.123 42.8936C140.553 43.1729 140.113 43.6079 139.801 44.1987C139.501 44.7788 139.35 45.5308 139.35 46.4546V49.2422H137.014V50.3218H139.35V66ZM147.33 66H148.571V49.2422H147.33V66ZM147.942 45.9551C148.211 45.9551 148.437 45.8638 148.619 45.6812C148.813 45.4878 148.909 45.2622 148.909 45.0044C148.909 44.7358 148.813 44.5103 148.619 44.3276C148.437 44.145 148.211 44.0537 147.942 44.0537C147.685 44.0537 147.459 44.145 147.266 44.3276C147.072 44.5103 146.976 44.7358 146.976 45.0044C146.976 45.2622 147.072 45.4878 147.266 45.6812C147.459 45.8638 147.685 45.9551 147.942 45.9551ZM157.002 66.2739C157.238 66.2739 157.464 66.2632 157.679 66.2417C157.904 66.2202 158.092 66.188 158.243 66.145V65.1138C158.125 65.1353 157.974 65.1567 157.792 65.1782C157.62 65.189 157.426 65.1943 157.211 65.1943C156.384 65.1943 155.772 64.9849 155.375 64.5659C154.977 64.1362 154.778 63.4326 154.778 62.4551V50.3218H158.243V49.2422H154.778V44.7144H153.522V49.2422H151.024V50.3218H153.522V62.5195C153.522 63.7979 153.806 64.7432 154.376 65.3555C154.956 65.9678 155.831 66.2739 157.002 66.2739ZM166.899 66.2739C168.092 66.2739 169.145 66.0752 170.058 65.6777C170.971 65.2803 171.685 64.7324 172.201 64.0342C172.727 63.3252 172.99 62.5142 172.99 61.6011V61.585C172.99 60.4248 172.63 59.5063 171.911 58.8296C171.191 58.1421 170.009 57.605 168.366 57.2183L166.013 56.6704C165.122 56.4556 164.396 56.2085 163.838 55.9292C163.29 55.6392 162.887 55.2954 162.629 54.8979C162.382 54.5005 162.259 54.0332 162.259 53.4961V53.48C162.259 52.8247 162.447 52.2393 162.823 51.7236C163.199 51.1973 163.72 50.7891 164.386 50.499C165.063 50.1982 165.831 50.0479 166.69 50.0479C168.043 50.0479 169.145 50.4077 169.993 51.1274C170.842 51.8364 171.347 52.7817 171.508 53.9634L171.524 54.0762H172.732L172.716 53.9312C172.609 52.9321 172.292 52.062 171.766 51.3208C171.25 50.5796 170.563 50.0049 169.703 49.5967C168.844 49.1777 167.839 48.9683 166.69 48.9683C165.594 48.9683 164.617 49.1616 163.757 49.5483C162.898 49.9351 162.221 50.4722 161.727 51.1597C161.244 51.8364 161.002 52.6206 161.002 53.5122V53.5283C161.002 54.2588 161.163 54.8926 161.485 55.4297C161.818 55.9668 162.329 56.4287 163.016 56.8154C163.714 57.1914 164.59 57.5083 165.643 57.7661L167.995 58.314C169.349 58.6255 170.31 59.0391 170.879 59.5547C171.449 60.0596 171.733 60.7578 171.733 61.6494V61.6655C171.733 62.353 171.529 62.9653 171.121 63.5024C170.713 64.0396 170.144 64.4585 169.413 64.7593C168.693 65.0493 167.85 65.1943 166.883 65.1943C165.465 65.1943 164.289 64.8345 163.355 64.1147C162.42 63.3843 161.872 62.4497 161.711 61.311L161.695 61.166H160.454L160.47 61.311C160.578 62.2778 160.911 63.1372 161.469 63.8892C162.039 64.6304 162.785 65.2158 163.709 65.6455C164.633 66.0645 165.696 66.2739 166.899 66.2739Z" fill="black" fill-opacity="0.74"/>
<defs>
<linearGradient id="paint0_linear_13_3137" x1="0" y1="-8" x2="164.842" y2="-11.8722" gradientUnits="userSpaceOnUse">
<stop stop-color="#8744E1"/>
<stop offset="0.691847" stop-color="#FABA6E"/>
</linearGradient>
</defs>
</svg>
