<svg width="66" height="32" viewBox="0 0 66 32" fill="none" xmlns="http://www.w3.org/2000/svg">
<path d="M1.54688 8.44531H5.01562C5.80729 8.44531 6.5 8.28646 7.09375 7.96875C7.6875 7.65104 8.14844 7.20312 8.47656 6.625C8.8099 6.04688 8.97656 5.36979 8.97656 4.59375V4.57812C8.97656 3.80729 8.8099 3.13281 8.47656 2.55469C8.14844 1.97656 7.6875 1.52865 7.09375 1.21094C6.5 0.888021 5.80729 0.726562 5.01562 0.726562H1.54688V2.59375H4.4375C5.11458 2.59375 5.64062 2.76562 6.01562 3.10938C6.39583 3.45312 6.58594 3.94531 6.58594 4.58594V4.60156C6.58594 5.24219 6.39583 5.73698 6.01562 6.08594C5.64062 6.42969 5.11458 6.60156 4.4375 6.60156H1.54688V8.44531ZM0.367188 12H2.72656V0.726562H0.367188V12ZM14.4688 12.1797C15.099 12.1797 15.6432 12.1016 16.1016 11.9453C16.5651 11.7839 16.9505 11.5755 17.2578 11.3203C17.5703 11.0651 17.8151 10.7917 17.9922 10.5C18.1693 10.2031 18.2917 9.91927 18.3594 9.64844L18.375 9.57031H16.25L16.2266 9.61719C16.1745 9.72656 16.0755 9.84896 15.9297 9.98438C15.7891 10.1146 15.6016 10.2292 15.3672 10.3281C15.1328 10.4271 14.849 10.4766 14.5156 10.4766C14.1042 10.4766 13.75 10.3854 13.4531 10.2031C13.1562 10.0208 12.9271 9.75781 12.7656 9.41406C12.6042 9.07031 12.5234 8.65625 12.5234 8.17188V7.25C12.5234 6.75 12.6042 6.32812 12.7656 5.98438C12.9323 5.63542 13.1562 5.3724 13.4375 5.19531C13.724 5.01302 14.0495 4.92188 14.4141 4.92188C14.7839 4.92188 15.1068 5.01042 15.3828 5.1875C15.6641 5.35938 15.8828 5.61719 16.0391 5.96094C16.2005 6.30469 16.2812 6.73438 16.2812 7.25V8.16406L17.3516 6.8125H11.4062V8.24219H18.4453V7.53125C18.4453 6.66146 18.2812 5.90365 17.9531 5.25781C17.625 4.61198 17.1562 4.10938 16.5469 3.75C15.9375 3.39062 15.2135 3.21094 14.375 3.21094C13.5417 3.21094 12.8151 3.39583 12.1953 3.76562C11.5807 4.13542 11.1042 4.65625 10.7656 5.32812C10.4323 6 10.2656 6.79167 10.2656 7.70312V7.71094C10.2656 8.63281 10.4349 9.42708 10.7734 10.0938C11.112 10.7604 11.5938 11.276 12.2188 11.6406C12.849 12 13.599 12.1797 14.4688 12.1797ZM23.8828 12.0312C24.1068 12.0312 24.3177 12.0208 24.5156 12C24.7135 11.9792 24.8828 11.9557 25.0234 11.9297V10.2344C24.9141 10.2448 24.8099 10.2552 24.7109 10.2656C24.6172 10.2708 24.4974 10.2734 24.3516 10.2734C23.9661 10.2734 23.6849 10.1849 23.5078 10.0078C23.3359 9.82552 23.25 9.54167 23.25 9.15625V5.11719H25.0234V3.39844H23.25V1.34375H20.9453V3.39844H19.6172V5.11719H20.9453V9.67969C20.9453 10.513 21.1745 11.1146 21.6328 11.4844C22.0911 11.849 22.8411 12.0312 23.8828 12.0312ZM30.2656 12.1797C31 12.1797 31.651 12.0651 32.2188 11.8359C32.7865 11.6016 33.2318 11.2734 33.5547 10.8516C33.8776 10.4297 34.0391 9.9349 34.0391 9.36719V9.35938C34.0391 8.72396 33.8333 8.21875 33.4219 7.84375C33.0104 7.46875 32.375 7.1875 31.5156 7L30.0859 6.69531C29.7891 6.6276 29.5521 6.55208 29.375 6.46875C29.1979 6.38542 29.0703 6.28646 28.9922 6.17188C28.9141 6.05729 28.875 5.92448 28.875 5.77344V5.76562C28.875 5.57292 28.9323 5.40625 29.0469 5.26562C29.1667 5.125 29.3281 5.01562 29.5312 4.9375C29.7344 4.85938 29.9661 4.82031 30.2266 4.82031C30.6536 4.82031 30.9922 4.91146 31.2422 5.09375C31.4922 5.27083 31.6484 5.47656 31.7109 5.71094L31.7188 5.75H33.8359V5.71875C33.8047 5.25521 33.6458 4.83594 33.3594 4.46094C33.0781 4.08073 32.6745 3.77865 32.1484 3.55469C31.6224 3.32552 30.9844 3.21094 30.2344 3.21094C29.5208 3.21094 28.8932 3.32292 28.3516 3.54688C27.8151 3.77083 27.3958 4.08594 27.0938 4.49219C26.7969 4.89323 26.6484 5.36458 26.6484 5.90625V5.91406C26.6484 6.34115 26.737 6.71615 26.9141 7.03906C27.0964 7.36198 27.3698 7.63542 27.7344 7.85938C28.099 8.07812 28.5547 8.24479 29.1016 8.35938L30.5391 8.66406C30.9766 8.76302 31.2891 8.88802 31.4766 9.03906C31.6641 9.1901 31.7578 9.38021 31.7578 9.60938V9.625C31.7578 9.8125 31.6953 9.97656 31.5703 10.1172C31.4453 10.2578 31.2734 10.3698 31.0547 10.4531C30.8359 10.5312 30.5807 10.5703 30.2891 10.5703C29.8411 10.5703 29.4844 10.4844 29.2188 10.3125C28.9583 10.1406 28.7812 9.92188 28.6875 9.65625L28.6719 9.625H26.4297L26.4375 9.65625C26.4896 10.1458 26.6693 10.5807 26.9766 10.9609C27.2891 11.3411 27.7188 11.6406 28.2656 11.8594C28.8177 12.0729 29.4844 12.1797 30.2656 12.1797ZM1.54688 31H5.42969C6.23698 31 6.92969 30.8698 7.50781 30.6094C8.09115 30.3438 8.53906 29.9714 8.85156 29.4922C9.16927 29.0078 9.32812 28.4375 9.32812 27.7812V27.7656C9.32812 27.2865 9.21615 26.8516 8.99219 26.4609C8.77344 26.0703 8.46875 25.7526 8.07812 25.5078C7.69271 25.263 7.25 25.1224 6.75 25.0859V24.9453C7.13542 24.888 7.48177 24.7448 7.78906 24.5156C8.09635 24.2865 8.33854 24 8.51562 23.6562C8.69792 23.3125 8.78906 22.9427 8.78906 22.5469V22.5312C8.78906 21.9531 8.64844 21.4557 8.36719 21.0391C8.09115 20.6172 7.69271 20.2943 7.17188 20.0703C6.65625 19.8411 6.03125 19.7266 5.29688 19.7266H1.54688V21.4766H4.69531C5.25781 21.4766 5.69271 21.6068 6 21.8672C6.3125 22.1224 6.46875 22.4792 6.46875 22.9375V22.9531C6.46875 23.4167 6.29948 23.776 5.96094 24.0312C5.6224 24.2865 5.13542 24.4141 4.5 24.4141H1.54688V25.9688H4.77344C5.23698 25.9688 5.6276 26.0312 5.94531 26.1562C6.26823 26.276 6.51042 26.4557 6.67188 26.6953C6.83854 26.9349 6.92188 27.2292 6.92188 27.5781V27.5938C6.92188 28.1302 6.74219 28.5391 6.38281 28.8203C6.02865 29.1016 5.51042 29.2422 4.82812 29.2422H1.54688V31ZM0.367188 31H2.72656V19.7266H0.367188V31ZM15.0156 31.1797C15.6458 31.1797 16.1901 31.1016 16.6484 30.9453C17.112 30.7839 17.4974 30.5755 17.8047 30.3203C18.1172 30.0651 18.362 29.7917 18.5391 29.5C18.7161 29.2031 18.8385 28.9193 18.9062 28.6484L18.9219 28.5703H16.7969L16.7734 28.6172C16.7214 28.7266 16.6224 28.849 16.4766 28.9844C16.3359 29.1146 16.1484 29.2292 15.9141 29.3281C15.6797 29.4271 15.3958 29.4766 15.0625 29.4766C14.651 29.4766 14.2969 29.3854 14 29.2031C13.7031 29.0208 13.474 28.7578 13.3125 28.4141C13.151 28.0703 13.0703 27.6562 13.0703 27.1719V26.25C13.0703 25.75 13.151 25.3281 13.3125 24.9844C13.4792 24.6354 13.7031 24.3724 13.9844 24.1953C14.2708 24.013 14.5964 23.9219 14.9609 23.9219C15.3307 23.9219 15.6536 24.0104 15.9297 24.1875C16.2109 24.3594 16.4297 24.6172 16.5859 24.9609C16.7474 25.3047 16.8281 25.7344 16.8281 26.25V27.1641L17.8984 25.8125H11.9531V27.2422H18.9922V26.5312C18.9922 25.6615 18.8281 24.9036 18.5 24.2578C18.1719 23.612 17.7031 23.1094 17.0938 22.75C16.4844 22.3906 15.7604 22.2109 14.9219 22.2109C14.0885 22.2109 13.362 22.3958 12.7422 22.7656C12.1276 23.1354 11.651 23.6562 11.3125 24.3281C10.9792 25 10.8125 25.7917 10.8125 26.7031V26.7109C10.8125 27.6328 10.9818 28.4271 11.3203 29.0938C11.6589 29.7604 12.1406 30.276 12.7656 30.6406C13.3958 31 14.1458 31.1797 15.0156 31.1797ZM20.8594 31H23.1406V26.0234C23.1406 25.6328 23.2083 25.2943 23.3438 25.0078C23.4844 24.7214 23.6797 24.5 23.9297 24.3438C24.1849 24.1823 24.487 24.1016 24.8359 24.1016C25.3776 24.1016 25.776 24.2578 26.0312 24.5703C26.2865 24.8828 26.4141 25.3438 26.4141 25.9531V31H28.6953V25.4375C28.6953 24.4062 28.4427 23.612 27.9375 23.0547C27.4375 22.4922 26.7083 22.2109 25.75 22.2109C25.1354 22.2109 24.6198 22.3464 24.2031 22.6172C23.7865 22.888 23.4792 23.2578 23.2812 23.7266H23.1406V22.3984H20.8594V31ZM34.6875 31.1797C35.3177 31.1797 35.862 31.1016 36.3203 30.9453C36.7839 30.7839 37.1693 30.5755 37.4766 30.3203C37.7891 30.0651 38.0339 29.7917 38.2109 29.5C38.388 29.2031 38.5104 28.9193 38.5781 28.6484L38.5938 28.5703H36.4688L36.4453 28.6172C36.3932 28.7266 36.2943 28.849 36.1484 28.9844C36.0078 29.1146 35.8203 29.2292 35.5859 29.3281C35.3516 29.4271 35.0677 29.4766 34.7344 29.4766C34.3229 29.4766 33.9688 29.3854 33.6719 29.2031C33.375 29.0208 33.1458 28.7578 32.9844 28.4141C32.8229 28.0703 32.7422 27.6562 32.7422 27.1719V26.25C32.7422 25.75 32.8229 25.3281 32.9844 24.9844C33.151 24.6354 33.375 24.3724 33.6562 24.1953C33.9427 24.013 34.2682 23.9219 34.6328 23.9219C35.0026 23.9219 35.3255 24.0104 35.6016 24.1875C35.8828 24.3594 36.1016 24.6172 36.2578 24.9609C36.4193 25.3047 36.5 25.7344 36.5 26.25V27.1641L37.5703 25.8125H31.625V27.2422H38.6641V26.5312C38.6641 25.6615 38.5 24.9036 38.1719 24.2578C37.8438 23.612 37.375 23.1094 36.7656 22.75C36.1562 22.3906 35.4323 22.2109 34.5938 22.2109C33.7604 22.2109 33.0339 22.3958 32.4141 22.7656C31.7995 23.1354 31.3229 23.6562 30.9844 24.3281C30.651 25 30.4844 25.7917 30.4844 26.7031V26.7109C30.4844 27.6328 30.6536 28.4271 30.9922 29.0938C31.3307 29.7604 31.8125 30.276 32.4375 30.6406C33.0677 31 33.8177 31.1797 34.6875 31.1797ZM41.1953 31H43.4766V24.1172H45.25V22.3984H43.4297V21.75C43.4297 21.375 43.5208 21.0885 43.7031 20.8906C43.8854 20.6875 44.1979 20.5859 44.6406 20.5859C44.7865 20.5859 44.9167 20.5911 45.0312 20.6016C45.151 20.6068 45.2474 20.6172 45.3203 20.6328V19.1094C45.1536 19.0833 44.974 19.0625 44.7812 19.0469C44.5938 19.0312 44.3828 19.0234 44.1484 19.0234C43.4557 19.0234 42.8906 19.1198 42.4531 19.3125C42.0208 19.5 41.7031 19.7839 41.5 20.1641C41.2969 20.5443 41.1953 21.0208 41.1953 21.5938V22.3984H39.8047V24.1172H41.1953V31ZM47.0781 31H49.3594V22.3984H47.0781V31ZM48.2266 21.0781C48.5807 21.0781 48.8828 20.9557 49.1328 20.7109C49.3828 20.4609 49.5078 20.1615 49.5078 19.8125C49.5078 19.4583 49.3828 19.1589 49.1328 18.9141C48.8828 18.6641 48.5807 18.5391 48.2266 18.5391C47.8776 18.5391 47.5755 18.6641 47.3203 18.9141C47.0651 19.1589 46.9375 19.4583 46.9375 19.8125C46.9375 20.1615 47.0651 20.4609 47.3203 20.7109C47.5755 20.9557 47.8776 21.0781 48.2266 21.0781ZM55.2266 31.0312C55.4505 31.0312 55.6615 31.0208 55.8594 31C56.0573 30.9792 56.2266 30.9557 56.3672 30.9297V29.2344C56.2578 29.2448 56.1536 29.2552 56.0547 29.2656C55.9609 29.2708 55.8411 29.2734 55.6953 29.2734C55.3099 29.2734 55.0286 29.1849 54.8516 29.0078C54.6797 28.8255 54.5938 28.5417 54.5938 28.1562V24.1172H56.3672V22.3984H54.5938V20.3438H52.2891V22.3984H50.9609V24.1172H52.2891V28.6797C52.2891 29.513 52.5182 30.1146 52.9766 30.4844C53.4349 30.849 54.1849 31.0312 55.2266 31.0312ZM61.6094 31.1797C62.3438 31.1797 62.9948 31.0651 63.5625 30.8359C64.1302 30.6016 64.5755 30.2734 64.8984 29.8516C65.2214 29.4297 65.3828 28.9349 65.3828 28.3672V28.3594C65.3828 27.724 65.1771 27.2188 64.7656 26.8438C64.3542 26.4688 63.7188 26.1875 62.8594 26L61.4297 25.6953C61.1328 25.6276 60.8958 25.5521 60.7188 25.4688C60.5417 25.3854 60.4141 25.2865 60.3359 25.1719C60.2578 25.0573 60.2188 24.9245 60.2188 24.7734V24.7656C60.2188 24.5729 60.276 24.4062 60.3906 24.2656C60.5104 24.125 60.6719 24.0156 60.875 23.9375C61.0781 23.8594 61.3099 23.8203 61.5703 23.8203C61.9974 23.8203 62.3359 23.9115 62.5859 24.0938C62.8359 24.2708 62.9922 24.4766 63.0547 24.7109L63.0625 24.75H65.1797V24.7188C65.1484 24.2552 64.9896 23.8359 64.7031 23.4609C64.4219 23.0807 64.0182 22.7786 63.4922 22.5547C62.9661 22.3255 62.3281 22.2109 61.5781 22.2109C60.8646 22.2109 60.237 22.3229 59.6953 22.5469C59.1589 22.7708 58.7396 23.0859 58.4375 23.4922C58.1406 23.8932 57.9922 24.3646 57.9922 24.9062V24.9141C57.9922 25.3411 58.0807 25.7161 58.2578 26.0391C58.4401 26.362 58.7135 26.6354 59.0781 26.8594C59.4427 27.0781 59.8984 27.2448 60.4453 27.3594L61.8828 27.6641C62.3203 27.763 62.6328 27.888 62.8203 28.0391C63.0078 28.1901 63.1016 28.3802 63.1016 28.6094V28.625C63.1016 28.8125 63.0391 28.9766 62.9141 29.1172C62.7891 29.2578 62.6172 29.3698 62.3984 29.4531C62.1797 29.5312 61.9245 29.5703 61.6328 29.5703C61.1849 29.5703 60.8281 29.4844 60.5625 29.3125C60.3021 29.1406 60.125 28.9219 60.0312 28.6562L60.0156 28.625H57.7734L57.7812 28.6562C57.8333 29.1458 58.013 29.5807 58.3203 29.9609C58.6328 30.3411 59.0625 30.6406 59.6094 30.8594C60.1615 31.0729 60.8281 31.1797 61.6094 31.1797Z" fill="#1F2122"/>
<path d="M41.3564 12H41.6934L43.5635 5.68164H43.5977L45.4678 12H45.8047L47.7725 4.9541H47.377L45.6436 11.3311H45.6143L43.7588 4.9541H43.4023L41.5469 11.3311H41.5176L39.7842 4.9541H39.3887L41.3564 12ZM49.1836 12H49.5596V6.74121H49.1836V12ZM49.374 5.55469C49.4652 5.55469 49.5417 5.52214 49.6035 5.45703C49.6686 5.39193 49.7012 5.31543 49.7012 5.22754C49.7012 5.13639 49.6686 5.0599 49.6035 4.99805C49.5417 4.93294 49.4652 4.90039 49.374 4.90039C49.2861 4.90039 49.2096 4.93294 49.1445 4.99805C49.0794 5.0599 49.0469 5.13639 49.0469 5.22754C49.0469 5.31543 49.0794 5.39193 49.1445 5.45703C49.2096 5.52214 49.2861 5.55469 49.374 5.55469ZM52.8994 12.0342C52.9743 12.0342 53.0426 12.0309 53.1045 12.0244C53.1696 12.0179 53.2347 12.0098 53.2998 12V11.6729C53.2477 11.6761 53.1908 11.681 53.1289 11.6875C53.0703 11.6908 53.0052 11.6924 52.9336 11.6924C52.6081 11.6924 52.3753 11.6143 52.2354 11.458C52.0986 11.3018 52.0303 11.0527 52.0303 10.7109V7.07324H53.2998V6.74121H52.0303V5.37402H51.6445V6.74121H50.7803V7.07324H51.6445V10.7695C51.6445 11.2155 51.7422 11.5378 51.9375 11.7363C52.1328 11.9349 52.4535 12.0342 52.8994 12.0342ZM54.7891 12H55.165V8.86523C55.165 8.50065 55.2432 8.17839 55.3994 7.89844C55.5557 7.61849 55.7689 7.40039 56.0391 7.24414C56.3125 7.08464 56.6234 7.00488 56.9717 7.00488C57.473 7.00488 57.8555 7.14811 58.1191 7.43457C58.3861 7.71777 58.5195 8.12793 58.5195 8.66504V12H58.8906V8.5625C58.8906 8.16536 58.8158 7.8252 58.666 7.54199C58.5195 7.25879 58.3079 7.04232 58.0312 6.89258C57.7578 6.73958 57.4274 6.66309 57.04 6.66309C56.6071 6.66309 56.2295 6.76725 55.9072 6.97559C55.5882 7.18392 55.3522 7.47363 55.1992 7.84473H55.165V4.64648H54.7891V12Z" fill="#6A6A6A"/>
</svg>
