<svg width="80" height="80" viewBox="0 0 80 80" fill="none" xmlns="http://www.w3.org/2000/svg">
<rect width="80" height="80" rx="15" fill="url(#paint0_linear_13_3123)"/>
<path d="M64.0661 46.6842C65.5005 62.5855 48.5725 66.1823 39.9292 65.993L33.4467 65.4251C27.2401 64.8099 15.0475 60.2004 15.9302 46.6842C16.8129 33.168 24.9874 23.826 28.8952 20.8445C30.5044 19.1408 34.8105 16.3013 39.9292 16.3013C45.86 16.3013 49.4461 19.1408 52.0667 21.4124C55.1334 24.0709 62.6316 30.7829 64.0661 46.6842Z" stroke="white" stroke-width="3"/>
<path d="M18.552 35.0422C14.5798 34.5879 13.4028 33.6224 13.3108 33.1965C12.0235 31.9187 10.5523 27.6878 14.9659 20.9865C20.483 12.6099 30.6894 16.7273 30.5515 19.4248" stroke="white" stroke-width="3"/>
<path d="M61.448 35.3435C65.4202 34.8891 66.5972 33.9237 66.6892 33.4978C67.9765 32.22 69.4477 27.9891 65.0341 21.2878C59.517 12.9112 49.3106 17.0285 49.4485 19.7261" stroke="white" stroke-width="3"/>
<path d="M41.7045 17C38.8042 29.3863 36.2685 50.3755 64 42.1329" stroke="white" stroke-width="3"/>
<path d="M54.292 35.3261C54.292 37.048 52.9469 38.3693 51.3784 38.3693C49.8099 38.3693 48.4648 37.048 48.4648 35.3261C48.4648 33.6041 49.8099 32.2828 51.3784 32.2828C52.9469 32.2828 54.292 33.6041 54.292 35.3261Z" stroke="white" stroke-width="3"/>
<path d="M32.2256 35.3261C32.2256 37.048 30.8805 38.3693 29.312 38.3693C27.7435 38.3693 26.3984 37.048 26.3984 35.3261C26.3984 33.6041 27.7435 32.2828 29.312 32.2828C30.8805 32.2828 32.2256 33.6041 32.2256 35.3261Z" stroke="white" stroke-width="3"/>
<path d="M46.5507 55.4868C46.5507 58.3575 43.6173 58.1296 41.5854 57.4911C41.2858 57.3969 41.0059 57.2939 40.7578 57.1905" stroke="white" stroke-width="2" stroke-linecap="round"/>
<path d="M33.4474 55.4868C33.4474 58.3575 36.3807 58.1296 38.4127 57.4911C38.7122 57.3969 38.9922 57.2939 39.2402 57.1905" stroke="white" stroke-width="2" stroke-linecap="round"/>
<path d="M40.0684 58.0423V50.9435" stroke="white" stroke-width="2"/>
<path d="M36.3297 46.4003C34.9045 48.104 33.5436 51.5114 39.502 51.5114C47.1155 51.7386 45.8006 48.1986 44.1915 46.4003H36.3297Z" stroke="white" stroke-width="3" stroke-linecap="square" stroke-linejoin="round"/>
<defs>
<linearGradient id="paint0_linear_13_3123" x1="39.5" y1="-43" x2="39" y2="210" gradientUnits="userSpaceOnUse">
<stop offset="0.187148" stop-color="#8744E1"/>
<stop offset="1" stop-color="white"/>
</linearGradient>
</defs>
</svg>
