<svg width="40" height="40" viewBox="0 0 40 40" fill="none" xmlns="http://www.w3.org/2000/svg">
<g clip-path="url(#clip0_60_5878)">
<rect width="40" height="40" rx="20" fill="#8744E1"/>
<g filter="url(#filter0_d_60_5878)">
<path d="M34.6481 20.084C34.522 19.578 34.3153 19.0957 34.0358 18.6554C33.7369 18.2149 33.38 17.8168 32.9746 17.4717C32.1629 16.7695 31.1986 16.2664 30.1583 16.0024L29.7093 15.9207C29.9986 14.8126 29.8938 13.6384 29.4128 12.599C28.9318 11.5596 28.1046 10.7197 27.0726 10.223C26.0406 9.72629 24.8681 9.60369 23.7557 9.87616C22.6433 10.1486 21.6602 10.7992 20.9746 11.7166C20.5381 10.6671 19.7325 9.8136 18.7098 9.31731C17.6872 8.82102 16.5182 8.71625 15.4236 9.02277H15.2603C14.8641 9.13216 14.4909 9.31189 14.1583 9.55338C13.3332 10.1064 12.7011 10.9029 12.3499 11.832C11.9987 12.7611 11.946 13.7766 12.1991 14.7371L11.546 14.6962H10.9338C9.28137 14.8114 7.74119 15.5741 6.64808 16.8187C6.60414 16.929 6.53412 17.0271 6.444 17.1044C6.444 17.1152 6.4397 17.1256 6.43204 17.1333C6.42439 17.1409 6.414 17.1452 6.40318 17.1452C5.82417 17.8716 5.46955 18.751 5.38277 19.6758C5.05624 22.1248 6.60726 24.6962 9.17869 25.7575C9.09706 29.2677 9.01542 32.7779 8.97461 36.2881C12.2145 38.4459 16.0207 39.5963 19.9134 39.5942C23.3457 39.5954 26.7201 38.7096 29.7093 37.0228L29.342 27.6758C33.2603 26.7371 35.4236 23.0228 34.6481 20.084ZM23.6685 14.2881C23.9134 13.5126 24.6073 13.0228 25.2195 13.186C25.8318 13.3493 26.0766 14.1656 25.8318 14.982C25.5869 15.7983 24.893 16.2881 24.2807 16.084C23.6685 15.8799 23.4236 15.1044 23.6685 14.2881ZM15.8726 11.7983C16.444 11.5942 17.1787 12.0432 17.4644 12.8595C17.7501 13.6758 17.5052 14.4513 16.9338 14.6554C16.3624 14.8595 15.6277 14.4105 15.342 13.635C15.0562 12.8595 15.2603 12.0432 15.8726 11.7983ZM12.5256 20.5738C12.0766 21.0228 11.2195 20.8595 10.6481 20.2473C10.0766 19.635 9.99502 18.7779 10.4848 18.3289C10.663 18.1664 10.8968 18.0787 11.1379 18.084H11.4236C11.7885 18.1717 12.1168 18.3715 12.3624 18.6554C12.5777 18.861 12.7275 19.1257 12.7929 19.4162C12.8582 19.7067 12.8362 20.01 12.7297 20.2881L12.5256 20.5738ZM24.7705 23.5126C23.995 25.4309 20.1175 23.4717 19.8318 23.5126C18.6481 23.5942 16.0358 25.0228 14.893 23.5126C14.3624 22.8187 14.8113 21.5534 15.7909 20.4105C16.7705 19.2677 18.5256 18.084 20.1991 18.1656C21.8726 18.2473 23.5869 19.7166 24.4032 21.186C25.2195 22.6554 25.0154 22.9003 24.7705 23.5126ZM29.3011 21.5534C28.9969 21.6667 28.6637 21.6762 28.3536 21.5802C28.0434 21.4842 27.7738 21.2882 27.5869 21.0228V20.9411C27.5632 20.9202 27.5486 20.891 27.546 20.8595C27.3828 20.2473 27.8726 19.5534 28.6889 19.3493C28.8575 19.2832 29.0388 19.2553 29.2195 19.2677C29.4758 19.2401 29.734 19.297 29.955 19.4296C30.176 19.5622 30.3477 19.7633 30.444 20.0024C30.6481 20.6146 30.1175 21.3085 29.3011 21.5534Z" fill="white"/>
<path d="M34.6481 20.084C34.522 19.578 34.3153 19.0957 34.0358 18.6554C33.7369 18.2149 33.38 17.8168 32.9746 17.4717C32.1629 16.7695 31.1986 16.2664 30.1583 16.0024L29.7093 15.9207C29.9986 14.8126 29.8938 13.6384 29.4128 12.599C28.9318 11.5596 28.1046 10.7197 27.0726 10.223C26.0406 9.72629 24.8681 9.60369 23.7557 9.87616C22.6433 10.1486 21.6602 10.7992 20.9746 11.7166C20.5381 10.6671 19.7325 9.8136 18.7098 9.31731C17.6872 8.82102 16.5182 8.71625 15.4236 9.02277H15.2603C14.8641 9.13216 14.4909 9.31189 14.1583 9.55338C13.3332 10.1064 12.7011 10.9029 12.3499 11.832C11.9987 12.7611 11.946 13.7766 12.1991 14.7371L11.546 14.6962H10.9338C9.28137 14.8114 7.74119 15.5741 6.64808 16.8187C6.60414 16.929 6.53412 17.0271 6.444 17.1044C6.444 17.1152 6.4397 17.1256 6.43204 17.1333C6.42439 17.1409 6.414 17.1452 6.40318 17.1452C5.82417 17.8716 5.46955 18.751 5.38277 19.6758C5.05624 22.1248 6.60726 24.6962 9.17869 25.7575C9.09706 29.2677 9.01542 32.7779 8.97461 36.2881C12.2145 38.4459 16.0207 39.5963 19.9134 39.5942C23.3457 39.5954 26.7201 38.7096 29.7093 37.0228L29.342 27.6758C33.2603 26.7371 35.4236 23.0228 34.6481 20.084ZM23.6685 14.2881C23.9134 13.5126 24.6073 13.0228 25.2195 13.186C25.8318 13.3493 26.0766 14.1656 25.8318 14.982C25.5869 15.7983 24.893 16.2881 24.2807 16.084C23.6685 15.8799 23.4236 15.1044 23.6685 14.2881ZM15.8726 11.7983C16.444 11.5942 17.1787 12.0432 17.4644 12.8595C17.7501 13.6758 17.5052 14.4513 16.9338 14.6554C16.3624 14.8595 15.6277 14.4105 15.342 13.635C15.0562 12.8595 15.2603 12.0432 15.8726 11.7983ZM12.5256 20.5738C12.0766 21.0228 11.2195 20.8595 10.6481 20.2473C10.0766 19.635 9.99502 18.7779 10.4848 18.3289C10.663 18.1664 10.8968 18.0787 11.1379 18.084H11.4236C11.7885 18.1717 12.1168 18.3715 12.3624 18.6554C12.5777 18.861 12.7275 19.1257 12.7929 19.4162C12.8582 19.7067 12.8362 20.01 12.7297 20.2881L12.5256 20.5738ZM24.7705 23.5126C23.995 25.4309 20.1175 23.4717 19.8318 23.5126C18.6481 23.5942 16.0358 25.0228 14.893 23.5126C14.3624 22.8187 14.8113 21.5534 15.7909 20.4105C16.7705 19.2677 18.5256 18.084 20.1991 18.1656C21.8726 18.2473 23.5869 19.7166 24.4032 21.186C25.2195 22.6554 25.0154 22.9003 24.7705 23.5126ZM29.3011 21.5534C28.9969 21.6667 28.6637 21.6762 28.3536 21.5802C28.0434 21.4842 27.7738 21.2882 27.5869 21.0228V20.9411C27.5632 20.9202 27.5486 20.891 27.546 20.8595C27.3828 20.2473 27.8726 19.5534 28.6889 19.3493C28.8575 19.2832 29.0388 19.2553 29.2195 19.2677C29.4758 19.2401 29.734 19.297 29.955 19.4296C30.176 19.5622 30.3477 19.7633 30.444 20.0024C30.6481 20.6146 30.1175 21.3085 29.3011 21.5534Z" stroke="#B684FA" stroke-width="2.22222" stroke-linecap="round" stroke-linejoin="round"/>
</g>
<path d="M6.64816 16.8596C6.60422 16.9699 6.5342 17.0679 6.44408 17.1453C6.44408 17.1561 6.43978 17.1665 6.43212 17.1741C6.42447 17.1818 6.41408 17.1861 6.40326 17.1861L6.64816 16.8596Z" fill="white"/>
<path d="M12.7298 20.3289L12.5257 20.5738C12.0767 21.0228 11.2196 20.8595 10.689 20.2473C10.1584 19.635 9.99509 18.7779 10.4849 18.3289C10.663 18.1665 10.8969 18.0788 11.1379 18.084H11.4237C11.7886 18.1717 12.1169 18.3716 12.3624 18.6555C12.586 18.8644 12.7408 19.1362 12.8064 19.4351C12.872 19.7339 12.8453 20.0456 12.7298 20.3289V20.3289Z" fill="white"/>
<path d="M24.7706 23.5126C23.9951 25.431 20.1175 23.4718 19.8318 23.5126C18.6481 23.5942 16.0359 25.0228 14.893 23.5126C14.3624 22.8187 14.8114 21.5534 15.791 20.4105C16.7706 19.2677 18.5257 18.084 20.1992 18.1656C21.8726 18.2473 23.6277 19.7167 24.4032 21.1861C25.1787 22.6554 25.0155 22.9003 24.7706 23.5126Z" fill="white"/>
<path d="M16.9338 14.6554C16.3624 14.9003 15.6277 14.4106 15.342 13.635C15.0563 12.8595 15.2604 12.0432 15.8726 11.7983C16.4849 11.5534 17.1787 12.0432 17.4645 12.8595C17.7502 13.6759 17.5053 14.4514 16.9338 14.6554Z" fill="white"/>
<path d="M25.8318 14.9819C25.5869 15.7982 24.893 16.288 24.2808 16.0839C23.6686 15.8798 23.4237 15.1043 23.6686 14.288C23.9135 13.4717 24.6073 13.0227 25.2196 13.186C25.8318 13.3492 26.0767 14.1656 25.8318 14.9819Z" fill="white"/>
<path d="M29.3012 21.5533C28.5665 21.7574 27.8726 21.5125 27.6277 21.0227C27.5872 20.9416 27.5872 20.9416 27.5466 20.8603C27.3828 20.2472 27.8726 19.5533 28.689 19.3493C28.8576 19.2831 29.0388 19.2552 29.2196 19.2676C29.4806 19.244 29.7425 19.3019 29.9692 19.4335C30.1958 19.5651 30.376 19.7639 30.4849 20.0023C30.6481 20.6146 30.1175 21.3084 29.3012 21.5533Z" fill="white"/>
<path d="M16.9338 14.6554C16.3624 14.9003 15.6277 14.4106 15.342 13.635C15.0563 12.8595 15.2604 12.0432 15.8726 11.7983C16.4849 11.5534 17.1787 12.0432 17.4645 12.8595C17.7502 13.6759 17.5053 14.4514 16.9338 14.6554Z" fill="#B684FA"/>
<path d="M15.4236 9.0228H15.2604C14.8642 9.13219 14.4909 9.31191 14.1583 9.55341C13.8583 9.46138 13.5804 9.30855 13.342 9.10443C12.7298 8.533 12.5665 7.67586 13.0155 7.22688C13.4644 6.7779 14.2808 6.85953 14.893 7.43096C15.129 7.61409 15.3053 7.86306 15.3997 8.14641C15.4942 8.42975 15.5025 8.73473 15.4236 9.0228V9.0228Z" fill="white"/>
<path d="M25.8318 14.9819C25.5869 15.7982 24.893 16.288 24.2808 16.0839C23.6686 15.8798 23.4237 15.1043 23.6686 14.288C23.9135 13.4717 24.6073 13.0227 25.2196 13.186C25.8318 13.3492 26.0767 14.1656 25.8318 14.9819Z" fill="#B684FA"/>
<path d="M29.3012 21.5533C28.5665 21.7574 27.8726 21.5125 27.6277 21.0227C27.5872 20.9416 27.5872 20.9416 27.5466 20.8603C27.3828 20.2472 27.8726 19.5533 28.689 19.3493C28.8576 19.2831 29.0388 19.2552 29.2196 19.2676C29.4806 19.244 29.7425 19.3019 29.9692 19.4335C30.1958 19.5651 30.376 19.7639 30.4849 20.0023C30.6481 20.6146 30.1175 21.3084 29.3012 21.5533Z" fill="#B684FA"/>
<path d="M34.9747 18.3289C34.6997 18.5259 34.3737 18.6393 34.0359 18.6554C33.749 18.2057 33.3905 17.8059 32.9747 17.4718C33.0814 17.0618 33.3265 16.7013 33.6685 16.4514C34.3624 15.9616 35.2196 16.0024 35.5869 16.533C35.9543 17.0636 35.6685 17.8391 34.9747 18.3289Z" fill="white"/>
<path d="M29.2147 9.71899C29.7819 9.10178 29.863 8.2535 29.3959 7.8243C28.9289 7.39509 28.0904 7.5475 27.5233 8.1647C26.9561 8.78191 26.875 9.6302 27.3421 10.0594C27.8091 10.4886 28.6475 10.3362 29.2147 9.71899Z" fill="white"/>
<path d="M12.7298 20.3289L12.5257 20.5738C12.0767 21.0228 11.2196 20.8595 10.689 20.2473C10.1584 19.635 9.99509 18.7779 10.4849 18.3289C10.663 18.1665 10.8969 18.0788 11.1379 18.084H11.4237C11.7886 18.1717 12.1169 18.3716 12.3624 18.6555C12.586 18.8644 12.7408 19.1362 12.8064 19.4351C12.872 19.7339 12.8453 20.0456 12.7298 20.3289V20.3289Z" fill="#B684FA"/>
<path d="M6.64811 16.8594C6.60418 16.9698 6.53415 17.0678 6.44403 17.1451C6.44403 17.156 6.43973 17.1663 6.43207 17.174C6.42442 17.1817 6.41404 17.186 6.40321 17.186C5.91342 17.5533 5.13791 17.39 4.56648 16.8186C3.99505 16.2472 3.91342 15.3492 4.40321 14.9002C4.89301 14.4513 5.70934 14.6553 6.28076 15.2676C6.4882 15.4698 6.63313 15.7273 6.69826 16.0096C6.7634 16.2918 6.74599 16.5868 6.64811 16.8594V16.8594Z" fill="white"/>
<path d="M24.7706 23.5126C23.9951 25.431 20.1175 23.4718 19.8318 23.5126C18.6481 23.5942 16.0359 25.0228 14.893 23.5126C14.3624 22.8187 14.8114 21.5534 15.791 20.4105C16.7706 19.2677 18.5257 18.084 20.1992 18.1656C21.8726 18.2473 23.6277 19.7167 24.4032 21.1861C25.1787 22.6554 25.0155 22.9003 24.7706 23.5126Z" fill="#B684FA"/>
<path d="M14.8522 28.533C16.2367 29.2881 17.7686 29.7337 19.342 29.8391C20.6966 29.909 22.0525 29.7292 23.342 29.3085" stroke="#B684FA" stroke-width="2.22222" stroke-linecap="round" stroke-linejoin="round"/>
</g>
<defs>
<filter id="filter0_d_60_5878" x="-0.216356" y="7.73929" width="40.5786" height="41.8549" filterUnits="userSpaceOnUse" color-interpolation-filters="sRGB">
<feFlood flood-opacity="0" result="BackgroundImageFix"/>
<feColorMatrix in="SourceAlpha" type="matrix" values="0 0 0 0 0 0 0 0 0 0 0 0 0 0 0 0 0 0 127 0" result="hardAlpha"/>
<feOffset dy="4.44444"/>
<feGaussianBlur stdDeviation="2.22222"/>
<feComposite in2="hardAlpha" operator="out"/>
<feColorMatrix type="matrix" values="0 0 0 0 0 0 0 0 0 0 0 0 0 0 0 0 0 0 0.25 0"/>
<feBlend mode="normal" in2="BackgroundImageFix" result="effect1_dropShadow_60_5878"/>
<feBlend mode="normal" in="SourceGraphic" in2="effect1_dropShadow_60_5878" result="shape"/>
</filter>
<clipPath id="clip0_60_5878">
<rect width="40" height="40" rx="20" fill="white"/>
</clipPath>
</defs>
</svg>
