<svg width="399" height="185" viewBox="0 0 399 185" fill="none" xmlns="http://www.w3.org/2000/svg">
<path d="M106.675 31H108.156L116.184 3.89035H116.226L124.255 31H125.735L134.139 0.908291H132.429L124.985 28.2473H124.943L116.998 0.908291H115.413L107.468 28.2473H107.426L100.002 0.908291H98.2712L106.675 31ZM143.904 31.3545C145.058 31.3545 146.121 31.2085 147.094 30.9166C148.081 30.6107 148.957 30.1798 149.722 29.6237C150.487 29.0676 151.119 28.4003 151.62 27.6217C152.134 26.8293 152.502 25.9465 152.725 24.9733L152.767 24.7856H151.14L151.098 24.9525C150.82 25.9673 150.355 26.8501 149.701 27.6009C149.062 28.3377 148.255 28.9077 147.282 29.3109C146.309 29.7001 145.19 29.8948 143.925 29.8948C142.312 29.8948 140.894 29.5194 139.671 28.7687C138.461 28.0179 137.516 26.9197 136.834 25.4738C136.167 24.028 135.833 22.2624 135.833 20.177V19.6348C135.833 17.7441 136.167 16.1105 136.834 14.7342C137.502 13.3579 138.419 12.2943 139.587 11.5436C140.769 10.7929 142.124 10.4175 143.654 10.4175C145.183 10.4175 146.531 10.7929 147.699 11.5436C148.881 12.2804 149.798 13.337 150.452 14.7134C151.119 16.0897 151.453 17.7302 151.453 19.6348V20.177L152.287 19.0718H135.02V20.4272H153.038V19.6557C153.038 17.4869 152.641 15.6031 151.849 14.0043C151.07 12.4056 149.979 11.1682 148.575 10.2924C147.171 9.40265 145.53 8.95777 143.654 8.95777C141.791 8.95777 140.15 9.4096 138.732 10.3133C137.314 11.2169 136.209 12.5098 135.416 14.192C134.624 15.8603 134.228 17.8483 134.228 20.1561V20.177C134.228 22.4848 134.624 24.4798 135.416 26.162C136.223 27.8303 137.349 29.1162 138.795 30.0199C140.241 30.9096 141.944 31.3545 143.904 31.3545ZM157.151 31H158.757V0.908291H157.151V31ZM172.483 31.3545C173.999 31.3545 175.354 31.0765 176.55 30.5204C177.759 29.9504 178.753 29.1718 179.532 28.1848C180.324 27.1838 180.839 26.0299 181.075 24.7231L181.117 24.5354H179.511L179.469 24.7231C179.122 26.2801 178.315 27.5314 177.05 28.4767C175.799 29.4221 174.277 29.8948 172.483 29.8948C170.884 29.8948 169.48 29.5055 168.271 28.727C167.075 27.9345 166.151 26.8084 165.497 25.3487C164.844 23.8889 164.517 22.1581 164.517 20.1561V20.1353C164.517 18.1472 164.844 16.4303 165.497 14.9845C166.151 13.5247 167.068 12.3986 168.25 11.6062C169.446 10.8137 170.85 10.4175 172.462 10.4175C174.297 10.4175 175.841 10.9041 177.092 11.8773C178.357 12.8365 179.156 14.0738 179.49 15.5892L179.532 15.7769H181.137L181.096 15.5684C180.873 14.3171 180.373 13.191 179.594 12.1901C178.816 11.1891 177.815 10.4036 176.591 9.83362C175.382 9.24972 174.006 8.95777 172.462 8.95777C170.53 8.95777 168.841 9.41655 167.395 10.3341C165.963 11.2378 164.851 12.5307 164.058 14.2129C163.28 15.8812 162.891 17.8553 162.891 20.1353V20.1561C162.891 22.4361 163.28 24.4172 164.058 26.0994C164.851 27.7816 165.963 29.0815 167.395 29.999C168.827 30.9027 170.523 31.3545 172.483 31.3545ZM193.488 31.3545C195.406 31.3545 197.088 30.9027 198.534 29.999C199.994 29.0954 201.127 27.8025 201.933 26.1203C202.754 24.4381 203.164 22.45 203.164 20.1561V20.1144C203.164 17.8205 202.754 15.8395 201.933 14.1712C201.127 12.5029 199.994 11.2169 198.534 10.3133C197.088 9.4096 195.406 8.95777 193.488 8.95777C191.569 8.95777 189.88 9.4096 188.42 10.3133C186.975 11.2169 185.848 12.5029 185.042 14.1712C184.236 15.8395 183.833 17.8205 183.833 20.1144V20.1561C183.833 22.4361 184.236 24.4172 185.042 26.0994C185.848 27.7816 186.975 29.0745 188.42 29.9782C189.88 30.8818 191.569 31.3406 193.488 31.3545ZM193.488 29.8948C191.875 29.8809 190.464 29.4846 189.255 28.7061C188.059 27.9276 187.127 26.8084 186.46 25.3487C185.793 23.8889 185.459 22.1581 185.459 20.1561V20.1144C185.459 18.1125 185.793 16.3886 186.46 14.9427C187.127 13.4969 188.059 12.3847 189.255 11.6062C190.464 10.8137 191.875 10.4175 193.488 10.4175C195.087 10.4175 196.491 10.8068 197.7 11.5853C198.91 12.3639 199.848 13.483 200.515 14.9427C201.197 16.3886 201.537 18.1125 201.537 20.1144V20.1561C201.537 22.1581 201.204 23.8889 200.536 25.3487C199.869 26.8084 198.931 27.9345 197.721 28.727C196.512 29.5055 195.1 29.8948 193.488 29.8948ZM207.11 31H208.716V18.0499C208.716 16.5068 208.98 15.1652 209.508 14.0252C210.037 12.8852 210.76 12.0024 211.677 11.3768C212.609 10.7512 213.672 10.4384 214.868 10.4384C215.994 10.4384 216.981 10.6956 217.829 11.21C218.677 11.7243 219.344 12.4542 219.831 13.3996C220.317 14.331 220.561 15.4224 220.561 16.6736V31H222.166V17.5286C222.166 16.1244 222.417 14.8941 222.917 13.8375C223.432 12.767 224.148 11.9329 225.065 11.3351C225.997 10.7373 227.074 10.4384 228.297 10.4384C229.479 10.4384 230.494 10.6886 231.342 11.1891C232.19 11.6896 232.843 12.4125 233.302 13.3579C233.761 14.3032 233.99 15.4224 233.99 16.7153V31H235.596V16.3608C235.596 14.8593 235.304 13.5595 234.72 12.4612C234.15 11.349 233.344 10.494 232.301 9.89618C231.259 9.28448 230.035 8.97862 228.631 8.97862C227.422 8.97862 226.351 9.21496 225.42 9.68765C224.488 10.1464 223.717 10.772 223.105 11.5645C222.493 12.343 222.048 13.198 221.77 14.1295H221.729C221.506 13.1702 221.096 12.3013 220.498 11.5228C219.914 10.7303 219.17 10.1117 218.267 9.66679C217.377 9.20801 216.355 8.97862 215.201 8.97862C213.519 8.97862 212.122 9.44435 211.01 10.3758C209.911 11.2934 209.168 12.4403 208.778 13.8167H208.716V9.31228H207.11V31ZM249.073 31.3545C250.226 31.3545 251.29 31.2085 252.263 30.9166C253.25 30.6107 254.126 30.1798 254.891 29.6237C255.655 29.0676 256.288 28.4003 256.788 27.6217C257.303 26.8293 257.671 25.9465 257.894 24.9733L257.935 24.7856H256.309L256.267 24.9525C255.989 25.9673 255.523 26.8501 254.87 27.6009C254.23 28.3377 253.424 28.9077 252.451 29.3109C251.478 29.7001 250.359 29.8948 249.093 29.8948C247.481 29.8948 246.063 29.5194 244.839 28.7687C243.63 28.0179 242.684 26.9197 242.003 25.4738C241.336 24.028 241.002 22.2624 241.002 20.177V19.6348C241.002 17.7441 241.336 16.1105 242.003 14.7342C242.671 13.3579 243.588 12.2943 244.756 11.5436C245.938 10.7929 247.293 10.4175 248.822 10.4175C250.352 10.4175 251.7 10.7929 252.868 11.5436C254.05 12.2804 254.967 13.337 255.621 14.7134C256.288 16.0897 256.622 17.7302 256.622 19.6348V20.177L257.456 19.0718H240.189V20.4272H258.206V19.6557C258.206 17.4869 257.81 15.6031 257.018 14.0043C256.239 12.4056 255.148 11.1682 253.744 10.2924C252.34 9.40265 250.699 8.95777 248.822 8.95777C246.959 8.95777 245.319 9.4096 243.901 10.3133C242.483 11.2169 241.378 12.5098 240.585 14.192C239.793 15.8603 239.397 17.8483 239.397 20.1561V20.177C239.397 22.4848 239.793 24.4798 240.585 26.162C241.392 27.8303 242.518 29.1162 243.963 30.0199C245.409 30.9096 247.112 31.3545 249.073 31.3545ZM279.654 31H281.281V2.40975H291.832V0.908291H269.102V2.40975H279.654V31ZM298.573 31.3545C300.492 31.3545 302.174 30.9027 303.62 29.999C305.079 29.0954 306.212 27.8025 307.019 26.1203C307.839 24.4381 308.249 22.45 308.249 20.1561V20.1144C308.249 17.8205 307.839 15.8395 307.019 14.1712C306.212 12.5029 305.079 11.2169 303.62 10.3133C302.174 9.4096 300.492 8.95777 298.573 8.95777C296.655 8.95777 294.965 9.4096 293.506 10.3133C292.06 11.2169 290.934 12.5029 290.127 14.1712C289.321 15.8395 288.918 17.8205 288.918 20.1144V20.1561C288.918 22.4361 289.321 24.4172 290.127 26.0994C290.934 27.7816 292.06 29.0745 293.506 29.9782C294.965 30.8818 296.655 31.3406 298.573 31.3545ZM298.573 29.8948C296.96 29.8809 295.549 29.4846 294.34 28.7061C293.144 27.9276 292.213 26.8084 291.545 25.3487C290.878 23.8889 290.544 22.1581 290.544 20.1561V20.1144C290.544 18.1125 290.878 16.3886 291.545 14.9427C292.213 13.4969 293.144 12.3847 294.34 11.6062C295.549 10.8137 296.96 10.4175 298.573 10.4175C300.172 10.4175 301.576 10.8068 302.786 11.5853C303.995 12.3639 304.933 13.483 305.601 14.9427C306.282 16.3886 306.623 18.1125 306.623 20.1144V20.1561C306.623 22.1581 306.289 23.8889 305.622 25.3487C304.954 26.8084 304.016 27.9345 302.806 28.727C301.597 29.5055 300.186 29.8948 298.573 29.8948ZM11.3393 133.438C13.4247 133.438 15.2459 133.097 16.8029 132.416C18.3739 131.735 19.5904 130.783 20.4523 129.559C21.3282 128.336 21.7661 126.904 21.7661 125.263V125.242C21.7661 123.824 21.4811 122.615 20.9111 121.614C20.3411 120.613 19.4305 119.765 18.1793 119.07C16.9281 118.375 15.2806 117.798 13.237 117.339L9.98383 116.588C7.5092 116.018 5.70885 115.233 4.58275 114.232C3.45666 113.217 2.89361 111.896 2.89361 110.27V110.249C2.89361 109.011 3.23422 107.927 3.91544 106.996C4.61056 106.05 5.56287 105.313 6.77238 104.785C7.99579 104.257 9.40688 103.993 11.0057 103.993C12.6183 103.993 14.0364 104.278 15.2598 104.848C16.4971 105.404 17.4911 106.189 18.2418 107.204C18.9926 108.205 19.4305 109.394 19.5556 110.77L19.5973 111.041H21.2239L21.2031 110.77C21.0779 109.116 20.5705 107.663 19.6807 106.412C18.791 105.16 17.6023 104.194 16.1148 103.513C14.6272 102.818 12.9311 102.47 11.0265 102.47C9.14969 102.47 7.47445 102.804 6.0008 103.471C4.52714 104.139 3.36629 105.063 2.51825 106.245C1.6702 107.413 1.23923 108.754 1.22533 110.27V110.311C1.22533 112.355 1.87874 114.002 3.18556 115.254C4.50629 116.491 6.60555 117.443 9.48334 118.111L12.7156 118.84C15.371 119.452 17.2617 120.258 18.3878 121.259C19.5278 122.26 20.0978 123.609 20.0978 125.305V125.326C20.0978 126.647 19.7364 127.801 19.0134 128.788C18.2905 129.775 17.2756 130.546 15.9688 131.102C14.662 131.645 13.1397 131.916 11.4019 131.916C9.65017 131.916 8.10006 131.638 6.75152 131.081C5.4169 130.511 4.34641 129.719 3.54007 128.704C2.74764 127.689 2.28191 126.501 2.14288 125.138L2.12203 124.867H0.474598L0.495452 125.138C0.620573 126.806 1.14886 128.266 2.08032 129.517C3.01178 130.769 4.26995 131.735 5.85482 132.416C7.45359 133.097 9.28176 133.438 11.3393 133.438ZM34.1373 133.355C36.0558 133.355 37.738 132.903 39.1838 131.999C40.6436 131.095 41.7766 129.802 42.583 128.12C43.4032 126.438 43.8133 124.45 43.8133 122.156V122.114C43.8133 119.821 43.4032 117.839 42.583 116.171C41.7766 114.503 40.6436 113.217 39.1838 112.313C37.738 111.41 36.0558 110.958 34.1373 110.958C32.2187 110.958 30.5296 111.41 29.0699 112.313C27.624 113.217 26.4979 114.503 25.6916 116.171C24.8852 117.839 24.4821 119.821 24.4821 122.114V122.156C24.4821 124.436 24.8852 126.417 25.6916 128.099C26.4979 129.782 27.624 131.075 29.0699 131.978C30.5296 132.882 32.2187 133.341 34.1373 133.355ZM34.1373 131.895C32.5246 131.881 31.1135 131.485 29.904 130.706C28.7084 129.928 27.7769 128.808 27.1096 127.349C26.4423 125.889 26.1086 124.158 26.1086 122.156V122.114C26.1086 120.112 26.4423 118.389 27.1096 116.943C27.7769 115.497 28.7084 114.385 29.904 113.606C31.1135 112.814 32.5246 112.418 34.1373 112.418C35.736 112.418 37.1402 112.807 38.3497 113.585C39.5592 114.364 40.4976 115.483 41.1649 116.943C41.8461 118.389 42.1868 120.112 42.1868 122.114V122.156C42.1868 124.158 41.8531 125.889 41.1858 127.349C40.5185 128.808 39.5801 129.935 38.3705 130.727C37.161 131.505 35.75 131.895 34.1373 131.895ZM56.3305 133.355C58.249 133.355 59.9312 132.903 61.377 131.999C62.8368 131.095 63.9698 129.802 64.7762 128.12C65.5964 126.438 66.0065 124.45 66.0065 122.156V122.114C66.0065 119.821 65.5964 117.839 64.7762 116.171C63.9698 114.503 62.8368 113.217 61.377 112.313C59.9312 111.41 58.249 110.958 56.3305 110.958C54.412 110.958 52.7228 111.41 51.2631 112.313C49.8172 113.217 48.6911 114.503 47.8848 116.171C47.0784 117.839 46.6753 119.821 46.6753 122.114V122.156C46.6753 124.436 47.0784 126.417 47.8848 128.099C48.6911 129.782 49.8172 131.075 51.2631 131.978C52.7228 132.882 54.412 133.341 56.3305 133.355ZM56.3305 131.895C54.7178 131.881 53.3067 131.485 52.0972 130.706C50.9016 129.928 49.9701 128.808 49.3028 127.349C48.6355 125.889 48.3019 124.158 48.3019 122.156V122.114C48.3019 120.112 48.6355 118.389 49.3028 116.943C49.9701 115.497 50.9016 114.385 52.0972 113.606C53.3067 112.814 54.7178 112.418 56.3305 112.418C57.9293 112.418 59.3334 112.807 60.5429 113.585C61.7524 114.364 62.6908 115.483 63.3581 116.943C64.0394 118.389 64.38 120.112 64.38 122.114V122.156C64.38 124.158 64.0463 125.889 63.379 127.349C62.7117 128.808 61.7733 129.935 60.5638 130.727C59.3542 131.505 57.9432 131.895 56.3305 131.895ZM69.9529 133H71.5586V120.05C71.5586 118.535 71.8575 117.207 72.4553 116.067C73.0531 114.927 73.8872 114.037 74.9577 113.398C76.0421 112.758 77.3003 112.438 78.7322 112.438C80.8037 112.438 82.4233 113.043 83.5911 114.253C84.7589 115.462 85.3428 117.228 85.3428 119.549V133H86.9485V119.362C86.9485 116.706 86.2465 114.649 84.8423 113.189C83.4521 111.715 81.5405 110.979 79.1076 110.979C77.2169 110.979 75.6181 111.437 74.3113 112.355C73.0183 113.273 72.1216 114.426 71.6212 115.817H71.5586V111.312H69.9529V133ZM109.731 133H111.357V119.883L122.305 102.908H120.387L110.586 118.215H110.502L100.701 102.908H98.7825L109.731 119.883V133ZM129.672 133.355C131.59 133.355 133.272 132.903 134.718 131.999C136.178 131.095 137.311 129.802 138.117 128.12C138.938 126.438 139.348 124.45 139.348 122.156V122.114C139.348 119.821 138.938 117.839 138.117 116.171C137.311 114.503 136.178 113.217 134.718 112.313C133.272 111.41 131.59 110.958 129.672 110.958C127.753 110.958 126.064 111.41 124.604 112.313C123.158 113.217 122.032 114.503 121.226 116.171C120.42 117.839 120.016 119.821 120.016 122.114V122.156C120.016 124.436 120.42 126.417 121.226 128.099C122.032 129.782 123.158 131.075 124.604 131.978C126.064 132.882 127.753 133.341 129.672 133.355ZM129.672 131.895C128.059 131.881 126.648 131.485 125.438 130.706C124.243 129.928 123.311 128.808 122.644 127.349C121.977 125.889 121.643 124.158 121.643 122.156V122.114C121.643 120.112 121.977 118.389 122.644 116.943C123.311 115.497 124.243 114.385 125.438 113.606C126.648 112.814 128.059 112.418 129.672 112.418C131.27 112.418 132.675 112.807 133.884 113.585C135.094 114.364 136.032 115.483 136.699 116.943C137.381 118.389 137.721 120.112 137.721 122.114V122.156C137.721 124.158 137.387 125.889 136.72 127.349C136.053 128.808 135.114 129.935 133.905 130.727C132.695 131.505 131.284 131.895 129.672 131.895ZM151.01 133.334C152.261 133.334 153.387 133.125 154.388 132.708C155.403 132.291 156.258 131.714 156.953 130.977C157.648 130.24 158.163 129.413 158.496 128.496H158.538V133H160.144V111.312H158.538V124.262C158.538 125.402 158.371 126.438 158.038 127.37C157.704 128.287 157.217 129.086 156.578 129.768C155.938 130.449 155.181 130.97 154.305 131.332C153.429 131.693 152.456 131.874 151.385 131.874C149.314 131.874 147.694 131.269 146.526 130.06C145.359 128.85 144.775 127.085 144.775 124.763V111.312H143.169V124.951C143.169 126.716 143.482 128.225 144.107 129.476C144.747 130.727 145.651 131.686 146.818 132.354C147.986 133.007 149.383 133.334 151.01 133.334ZM180.945 133H182.425L190.454 105.89H190.496L198.524 133H200.005L208.409 102.908H206.699L199.254 130.247H199.213L191.267 102.908H189.682L181.737 130.247H181.696L174.272 102.908H172.541L180.945 133ZM212.084 133H213.69V111.312H212.084V133ZM212.877 107.058C213.224 107.058 213.516 106.94 213.752 106.704C214.003 106.453 214.128 106.161 214.128 105.828C214.128 105.48 214.003 105.188 213.752 104.952C213.516 104.716 213.224 104.597 212.877 104.597C212.543 104.597 212.251 104.716 212.001 104.952C211.751 105.188 211.625 105.48 211.625 105.828C211.625 106.161 211.751 106.453 212.001 106.704C212.251 106.94 212.543 107.058 212.877 107.058ZM219.075 133H220.681V102.908H219.075V133ZM226.087 133H227.693V102.908H226.087V133ZM242.112 133H243.739V118.507H258.295V117.005H243.739V104.41H259.546V102.908H242.112V133ZM263.826 133H265.432V111.312H263.826V133ZM264.618 107.058C264.966 107.058 265.258 106.94 265.494 106.704C265.745 106.453 265.87 106.161 265.87 105.828C265.87 105.48 265.745 105.188 265.494 104.952C265.258 104.716 264.966 104.597 264.618 104.597C264.285 104.597 263.993 104.716 263.743 104.952C263.492 105.188 263.367 105.48 263.367 105.828C263.367 106.161 263.492 106.453 263.743 106.704C263.993 106.94 264.285 107.058 264.618 107.058ZM270.629 133H272.235V120.05C272.235 118.535 272.534 117.207 273.132 116.067C273.73 114.927 274.564 114.037 275.634 113.398C276.719 112.758 277.977 112.438 279.409 112.438C281.48 112.438 283.1 113.043 284.268 114.253C285.435 115.462 286.019 117.228 286.019 119.549V133H287.625V119.362C287.625 116.706 286.923 114.649 285.519 113.189C284.129 111.715 282.217 110.979 279.784 110.979C277.893 110.979 276.295 111.437 274.988 112.355C273.695 113.273 272.798 114.426 272.298 115.817H272.235V111.312H270.629V133ZM300.517 133.355C301.81 133.355 302.992 133.104 304.063 132.604C305.133 132.103 306.058 131.408 306.836 130.518C307.615 129.615 308.185 128.565 308.546 127.37H308.65V133H310.256V102.908H308.65V117.068H308.609C308.247 115.831 307.677 114.753 306.899 113.836C306.134 112.918 305.203 112.209 304.104 111.708C303.02 111.208 301.824 110.958 300.517 110.958C298.738 110.958 297.16 111.424 295.784 112.355C294.407 113.286 293.33 114.593 292.551 116.275C291.787 117.944 291.404 119.89 291.404 122.114V122.135C291.404 124.374 291.787 126.334 292.551 128.016C293.316 129.698 294.387 131.012 295.763 131.957C297.139 132.889 298.724 133.355 300.517 133.355ZM300.789 131.895C299.245 131.895 297.89 131.492 296.722 130.685C295.554 129.865 294.644 128.725 293.99 127.265C293.351 125.792 293.031 124.082 293.031 122.135V122.114C293.031 120.168 293.351 118.472 293.99 117.026C294.644 115.566 295.554 114.433 296.722 113.627C297.89 112.821 299.245 112.418 300.789 112.418C302.318 112.418 303.673 112.828 304.855 113.648C306.037 114.468 306.961 115.615 307.629 117.089C308.31 118.548 308.65 120.238 308.65 122.156V122.177C308.65 124.082 308.317 125.771 307.649 127.244C306.982 128.704 306.058 129.844 304.876 130.664C303.694 131.485 302.332 131.895 300.789 131.895ZM333.393 133H335.019V119.883L345.967 102.908H344.049L334.248 118.215H334.164L324.363 102.908H322.445L333.393 119.883V133ZM353.334 133.355C355.252 133.355 356.935 132.903 358.38 131.999C359.84 131.095 360.973 129.802 361.779 128.12C362.6 126.438 363.01 124.45 363.01 122.156V122.114C363.01 119.821 362.6 117.839 361.779 116.171C360.973 114.503 359.84 113.217 358.38 112.313C356.935 111.41 355.252 110.958 353.334 110.958C351.415 110.958 349.726 111.41 348.266 112.313C346.821 113.217 345.694 114.503 344.888 116.171C344.082 117.839 343.679 119.821 343.679 122.114V122.156C343.679 124.436 344.082 126.417 344.888 128.099C345.694 129.782 346.821 131.075 348.266 131.978C349.726 132.882 351.415 133.341 353.334 133.355ZM353.334 131.895C351.721 131.881 350.31 131.485 349.101 130.706C347.905 129.928 346.973 128.808 346.306 127.349C345.639 125.889 345.305 124.158 345.305 122.156V122.114C345.305 120.112 345.639 118.389 346.306 116.943C346.973 115.497 347.905 114.385 349.101 113.606C350.31 112.814 351.721 112.418 353.334 112.418C354.933 112.418 356.337 112.807 357.546 113.585C358.756 114.364 359.694 115.483 360.361 116.943C361.043 118.389 361.383 120.112 361.383 122.114V122.156C361.383 124.158 361.05 125.889 360.382 127.349C359.715 128.808 358.777 129.935 357.567 130.727C356.358 131.505 354.946 131.895 353.334 131.895ZM374.672 133.334C375.923 133.334 377.049 133.125 378.05 132.708C379.065 132.291 379.92 131.714 380.615 130.977C381.31 130.24 381.825 129.413 382.158 128.496H382.2V133H383.806V111.312H382.2V124.262C382.2 125.402 382.033 126.438 381.7 127.37C381.366 128.287 380.879 129.086 380.24 129.768C379.6 130.449 378.843 130.97 377.967 131.332C377.091 131.693 376.118 131.874 375.047 131.874C372.976 131.874 371.356 131.269 370.188 130.06C369.021 128.85 368.437 127.085 368.437 124.763V111.312H366.831V124.951C366.831 126.716 367.144 128.225 367.769 129.476C368.409 130.727 369.313 131.686 370.48 132.354C371.648 133.007 373.045 133.334 374.672 133.334ZM388.816 133H390.421V119.508C390.421 118.131 390.644 116.915 391.089 115.858C391.534 114.788 392.173 113.961 393.007 113.377C393.841 112.779 394.828 112.48 395.968 112.48C396.483 112.48 396.928 112.529 397.303 112.626C397.678 112.709 397.977 112.807 398.2 112.918V111.312C398.005 111.229 397.727 111.152 397.366 111.083C397.004 110.999 396.608 110.958 396.177 110.958C394.745 110.958 393.543 111.361 392.569 112.167C391.596 112.96 390.901 114.072 390.484 115.504H390.421V111.312H388.816V133ZM114.076 184H115.702V156.661H116.578L114.284 154.534L135.013 184H136.702V153.908H135.075V181.247H134.199L136.493 183.374L115.765 153.908H114.076V184ZM150.595 184.355C151.749 184.355 152.813 184.209 153.786 183.917C154.773 183.611 155.649 183.18 156.413 182.624C157.178 182.068 157.811 181.4 158.311 180.622C158.826 179.829 159.194 178.946 159.416 177.973L159.458 177.786H157.832L157.79 177.952C157.512 178.967 157.046 179.85 156.393 180.601C155.753 181.338 154.947 181.908 153.974 182.311C153 182.7 151.881 182.895 150.616 182.895C149.003 182.895 147.585 182.519 146.362 181.769C145.153 181.018 144.207 179.92 143.526 178.474C142.859 177.028 142.525 175.262 142.525 173.177V172.635C142.525 170.744 142.859 169.111 143.526 167.734C144.193 166.358 145.111 165.294 146.279 164.544C147.46 163.793 148.816 163.418 150.345 163.418C151.874 163.418 153.223 163.793 154.391 164.544C155.572 165.28 156.49 166.337 157.143 167.713C157.811 169.09 158.144 170.73 158.144 172.635V173.177L158.978 172.072H141.712V173.427H159.729V172.656C159.729 170.487 159.333 168.603 158.541 167.004C157.762 165.406 156.671 164.168 155.267 163.292C153.862 162.403 152.222 161.958 150.345 161.958C148.482 161.958 146.842 162.41 145.424 163.313C144.006 164.217 142.9 165.51 142.108 167.192C141.315 168.86 140.919 170.848 140.919 173.156V173.177C140.919 175.485 141.315 177.48 142.108 179.162C142.914 180.83 144.04 182.116 145.486 183.02C146.932 183.91 148.635 184.355 150.595 184.355ZM167.721 184H169.619L175.645 164.377H175.708L181.756 184H183.632L189.93 162.312H188.241L182.694 182.227H182.631L176.605 162.312H174.77L168.722 182.227H168.66L163.112 162.312H161.423L167.721 184ZM201.931 184H219.365V182.499H203.558V153.908H201.931V184ZM230.13 184.355C232.049 184.355 233.731 183.903 235.177 182.999C236.636 182.095 237.769 180.802 238.576 179.12C239.396 177.438 239.806 175.45 239.806 173.156V173.114C239.806 170.821 239.396 168.839 238.576 167.171C237.769 165.503 236.636 164.217 235.177 163.313C233.731 162.41 232.049 161.958 230.13 161.958C228.211 161.958 226.522 162.41 225.063 163.313C223.617 164.217 222.491 165.503 221.684 167.171C220.878 168.839 220.475 170.821 220.475 173.114V173.156C220.475 175.436 220.878 177.417 221.684 179.099C222.491 180.782 223.617 182.075 225.063 182.978C226.522 183.882 228.211 184.341 230.13 184.355ZM230.13 182.895C228.517 182.881 227.106 182.485 225.897 181.706C224.701 180.928 223.77 179.808 223.102 178.349C222.435 176.889 222.101 175.158 222.101 173.156V173.114C222.101 171.112 222.435 169.389 223.102 167.943C223.77 166.497 224.701 165.385 225.897 164.606C227.106 163.814 228.517 163.418 230.13 163.418C231.729 163.418 233.133 163.807 234.342 164.585C235.552 165.364 236.49 166.483 237.158 167.943C237.839 169.389 238.18 171.112 238.18 173.114V173.156C238.18 175.158 237.846 176.889 237.179 178.349C236.511 179.808 235.573 180.935 234.363 181.727C233.154 182.505 231.743 182.895 230.13 182.895ZM249.279 184H251.197L259.372 162.312H257.662L250.28 182.373H250.217L242.835 162.312H241.104L249.279 184ZM270.325 184.355C271.479 184.355 272.542 184.209 273.515 183.917C274.503 183.611 275.378 183.18 276.143 182.624C276.908 182.068 277.54 181.4 278.041 180.622C278.555 179.829 278.923 178.946 279.146 177.973L279.188 177.786H277.561L277.519 177.952C277.241 178.967 276.776 179.85 276.122 180.601C275.483 181.338 274.676 181.908 273.703 182.311C272.73 182.7 271.611 182.895 270.346 182.895C268.733 182.895 267.315 182.519 266.092 181.769C264.882 181.018 263.937 179.92 263.255 178.474C262.588 177.028 262.255 175.262 262.255 173.177V172.635C262.255 170.744 262.588 169.111 263.255 167.734C263.923 166.358 264.84 165.294 266.008 164.544C267.19 163.793 268.545 163.418 270.075 163.418C271.604 163.418 272.952 163.793 274.12 164.544C275.302 165.28 276.219 166.337 276.873 167.713C277.54 169.09 277.874 170.73 277.874 172.635V173.177L278.708 172.072H261.441V173.427H279.459V172.656C279.459 170.487 279.063 168.603 278.27 167.004C277.492 165.406 276.4 164.168 274.996 163.292C273.592 162.403 271.951 161.958 270.075 161.958C268.212 161.958 266.571 162.41 265.153 163.313C263.735 164.217 262.63 165.51 261.837 167.192C261.045 168.86 260.649 170.848 260.649 173.156V173.177C260.649 175.485 261.045 177.48 261.837 179.162C262.644 180.83 263.77 182.116 265.216 183.02C266.662 183.91 268.365 184.355 270.325 184.355ZM283.384 184H284.99V170.508C284.99 169.131 285.212 167.915 285.657 166.858C286.102 165.788 286.742 164.961 287.576 164.377C288.41 163.779 289.397 163.48 290.537 163.48C291.051 163.48 291.496 163.529 291.872 163.626C292.247 163.709 292.546 163.807 292.768 163.918V162.312C292.574 162.229 292.296 162.152 291.934 162.083C291.573 161.999 291.177 161.958 290.746 161.958C289.314 161.958 288.111 162.361 287.138 163.167C286.165 163.96 285.47 165.072 285.053 166.504H284.99V162.312H283.384V184ZM294.629 184.229C295.005 184.229 295.317 184.097 295.568 183.833C295.832 183.569 295.964 183.249 295.964 182.874C295.964 182.499 295.832 182.186 295.568 181.935C295.317 181.671 295.005 181.539 294.629 181.539C294.254 181.539 293.934 181.671 293.67 181.935C293.406 182.186 293.274 182.499 293.274 182.874C293.274 183.249 293.406 183.569 293.67 183.833C293.934 184.097 294.254 184.229 294.629 184.229Z" fill="#1F2122"/>
<path d="M23.4469 72.5116H32.3722C34.4854 72.5116 36.3344 72.0876 37.9193 71.2396C39.5041 70.3915 40.7345 69.1959 41.6104 67.6527C42.5001 66.1096 42.945 64.3023 42.945 62.2308V62.1891C42.945 60.1316 42.5001 58.3312 41.6104 56.788C40.7345 55.2449 39.5041 54.0493 37.9193 53.2012C36.3344 52.3393 34.4854 51.9083 32.3722 51.9083H23.4469V56.8923H30.8291C32.6364 56.8923 34.0405 57.3511 35.0415 58.2686C36.0564 59.1862 36.5638 60.5 36.5638 62.21V62.2517C36.5638 63.9617 36.0564 65.2824 35.0415 66.2138C34.0405 67.1314 32.6364 67.5902 30.8291 67.5902H23.4469V72.5116ZM20.2771 82H26.5749V51.9083H20.2771V82ZM55.8375 82.4588C57.4363 82.4588 58.8265 82.2502 60.0082 81.8332C61.2038 81.4161 62.2117 80.86 63.032 80.1649C63.8661 79.4698 64.5265 78.7051 65.0131 77.871C65.4997 77.0368 65.8264 76.2097 65.9932 75.3894L66.0557 75.16H60.467L60.4253 75.2851C60.2863 75.7022 60.0221 76.1123 59.6328 76.5155C59.2436 76.9187 58.7431 77.2523 58.1314 77.5165C57.5197 77.7806 56.7968 77.9127 55.9626 77.9127C54.906 77.9127 53.9954 77.6833 53.2308 77.2245C52.4662 76.7519 51.8753 76.0776 51.4582 75.2017C51.0551 74.3259 50.8535 73.2693 50.8535 72.032V69.6755C50.8535 68.3965 51.0551 67.3191 51.4582 66.4432C51.8753 65.5535 52.4453 64.8792 53.1682 64.4204C53.9051 63.9617 54.7462 63.7323 55.6915 63.7323C56.6369 63.7323 57.4641 63.9547 58.1731 64.3996C58.896 64.8445 59.4591 65.5118 59.8622 66.4015C60.2654 67.2774 60.467 68.3687 60.467 69.6755V72.0111L63.3656 68.4243H47.8297V72.2614H66.2434V70.3846C66.2434 68.1324 65.8055 66.1652 64.9297 64.483C64.0677 62.8008 62.8373 61.5009 61.2386 60.5834C59.6537 59.6519 57.7699 59.1862 55.5873 59.1862C53.4046 59.1862 51.5069 59.6658 49.8942 60.6251C48.2955 61.5704 47.0512 62.919 46.1614 64.6707C45.2856 66.4085 44.8477 68.466 44.8477 70.8433V70.8642C44.8477 73.2415 45.2856 75.2991 46.1614 77.0368C47.0512 78.7746 48.3163 80.1162 49.9568 81.0616C51.5973 81.993 53.5575 82.4588 55.8375 82.4588ZM78.4895 82.4588C79.129 82.4588 79.692 82.431 80.1786 82.3754C80.6791 82.3337 81.0962 82.285 81.4298 82.2294V77.7667C81.2491 77.7945 81.0545 77.8223 80.8459 77.8501C80.6374 77.864 80.3941 77.871 80.1161 77.871C79.1985 77.871 78.5034 77.6694 78.0307 77.2662C77.5719 76.8492 77.3425 76.1193 77.3425 75.0766V64.2328H81.4298V59.645H77.3425V54.1813H71.1907V59.645H68.0835V64.2328H71.1907V75.7439C71.1907 78.1351 71.7885 79.8521 72.9841 80.8948C74.1797 81.9374 76.0149 82.4588 78.4895 82.4588ZM94.1972 82.4588C96.1158 82.4588 97.8049 82.1599 99.2646 81.5621C100.738 80.9504 101.892 80.1023 102.726 79.0179C103.56 77.9336 103.978 76.6615 103.978 75.2017V75.1809C103.978 73.5404 103.463 72.2336 102.434 71.2604C101.42 70.2872 99.7373 69.5574 97.3878 69.0708L93.5925 68.2575C92.8417 68.0907 92.2439 67.896 91.7991 67.6736C91.3542 67.4512 91.0344 67.194 90.8398 66.902C90.6591 66.5962 90.5687 66.2556 90.5687 65.8802V65.8593C90.5687 65.3727 90.7077 64.9557 90.9858 64.6081C91.2638 64.2467 91.66 63.9686 92.1744 63.774C92.6888 63.5793 93.2936 63.482 93.9887 63.482C95.1148 63.482 95.9976 63.7531 96.6371 64.2953C97.2905 64.8236 97.6659 65.4909 97.7632 66.2973L97.784 66.4641H103.394V66.2556C103.352 64.9487 102.956 63.7601 102.205 62.6896C101.468 61.6191 100.405 60.7711 99.0144 60.1455C97.6381 59.5059 95.9628 59.1862 93.9887 59.1862C92.098 59.1862 90.4436 59.4781 89.0255 60.062C87.6214 60.632 86.537 61.4384 85.7724 62.4811C85.0078 63.5237 84.6254 64.761 84.6254 66.193V66.2138C84.6254 67.326 84.8687 68.3131 85.3553 69.1751C85.8419 70.0231 86.5648 70.7391 87.5241 71.323C88.4973 71.893 89.7068 72.3309 91.1526 72.6367L94.948 73.4292C96.0462 73.6794 96.8109 73.9853 97.2419 74.3467C97.6728 74.7082 97.8883 75.1878 97.8883 75.7856V75.8065C97.8883 76.2931 97.7354 76.7101 97.4295 77.0577C97.1376 77.4053 96.7205 77.6764 96.1783 77.871C95.6361 78.0517 94.9758 78.1421 94.1972 78.1421C92.9877 78.1421 92.0424 77.8988 91.3611 77.4122C90.6799 76.9256 90.242 76.2444 90.0474 75.3686L90.0057 75.1809H84.0624L84.0832 75.3686C84.2501 76.7727 84.7367 78.01 85.543 79.0805C86.3632 80.1371 87.4963 80.9643 88.9421 81.5621C90.388 82.1599 92.1397 82.4588 94.1972 82.4588ZM122.756 82H128.908L134.455 61.8346H134.58L140.106 82H146.258L154.245 51.9083H147.718L142.942 73.4709H142.817L137.27 51.9083H131.744L126.197 73.4709H126.072L121.317 51.9083H114.79L122.756 82ZM157.461 82H163.55V59.645H157.461V82ZM160.506 56.7672C161.423 56.7672 162.195 56.4544 162.821 55.8288C163.446 55.2032 163.759 54.4594 163.759 53.5974C163.759 52.7216 163.446 51.9778 162.821 51.3661C162.195 50.7405 161.423 50.4277 160.506 50.4277C159.588 50.4277 158.817 50.7405 158.191 51.3661C157.565 51.9778 157.253 52.7216 157.253 53.5974C157.253 54.4594 157.565 55.2032 158.191 55.8288C158.817 56.4544 159.588 56.7672 160.506 56.7672ZM176.735 82.4588C177.374 82.4588 177.937 82.431 178.424 82.3754C178.924 82.3337 179.342 82.285 179.675 82.2294V77.7667C179.494 77.7945 179.3 77.8223 179.091 77.8501C178.883 77.864 178.639 77.871 178.361 77.871C177.444 77.871 176.749 77.6694 176.276 77.2662C175.817 76.8492 175.588 76.1193 175.588 75.0766V64.2328H179.675V59.645H175.588V54.1813H169.436V59.645H166.329V64.2328H169.436V75.7439C169.436 78.1351 170.034 79.8521 171.23 80.8948C172.425 81.9374 174.26 82.4588 176.735 82.4588ZM183.392 82H189.481V69.1959C189.481 68.2227 189.662 67.3677 190.024 66.6309C190.399 65.8802 190.913 65.2963 191.567 64.8792C192.234 64.4482 193.013 64.2328 193.902 64.2328C195.293 64.2328 196.356 64.6776 197.093 65.5674C197.844 66.4432 198.219 67.6597 198.219 69.2168V82H204.308V67.9655C204.308 66.1582 203.989 64.6012 203.349 63.2943C202.723 61.9875 201.827 60.9796 200.659 60.2706C199.491 59.5477 198.094 59.1862 196.467 59.1862C194.799 59.1862 193.381 59.5616 192.213 60.3123C191.059 61.0491 190.19 62.1126 189.607 63.5029H189.481V51.9083H183.392V82ZM220.793 82H230.969C233.124 82 234.973 81.6524 236.516 80.9573C238.073 80.2483 239.269 79.2543 240.103 77.9753C240.951 76.6962 241.375 75.1809 241.375 73.4292V73.3875C241.375 72.0667 241.062 70.885 240.437 69.8424C239.825 68.7858 238.977 67.9377 237.893 67.2982C236.808 66.6448 235.564 66.2695 234.16 66.1721V66.047C235.272 65.8941 236.266 65.5118 237.142 64.9001C238.018 64.2745 238.706 63.4959 239.206 62.5645C239.721 61.6191 239.978 60.5973 239.978 59.499V59.4573C239.978 57.9141 239.603 56.5795 238.852 55.4534C238.101 54.3134 237.038 53.4376 235.661 52.8258C234.285 52.2141 232.644 51.9083 230.74 51.9083H220.793V56.5795H229.113C230.587 56.5795 231.734 56.9131 232.554 57.5805C233.374 58.2339 233.784 59.1584 233.784 60.354V60.3957C233.784 61.6886 233.319 62.6965 232.387 63.4195C231.47 64.1285 230.121 64.483 228.342 64.483H220.793V68.758H229.092C230.371 68.758 231.442 68.9179 232.304 69.2376C233.18 69.5574 233.84 70.037 234.285 70.6765C234.73 71.3021 234.952 72.0737 234.952 72.9913V73.033C234.952 74.4232 234.473 75.4867 233.513 76.2236C232.554 76.9465 231.171 77.3079 229.363 77.3079H220.793V82ZM217.644 82H223.942V51.9083H217.644V82ZM254.831 82.4588C256.429 82.4588 257.82 82.2502 259.001 81.8332C260.197 81.4161 261.205 80.86 262.025 80.1649C262.859 79.4698 263.52 78.7051 264.006 77.871C264.493 77.0368 264.82 76.2097 264.986 75.3894L265.049 75.16H259.46L259.418 75.2851C259.279 75.7022 259.015 76.1123 258.626 76.5155C258.237 76.9187 257.736 77.2523 257.125 77.5165C256.513 77.7806 255.79 77.9127 254.956 77.9127C253.899 77.9127 252.989 77.6833 252.224 77.2245C251.459 76.7519 250.868 76.0776 250.451 75.2017C250.048 74.3259 249.847 73.2693 249.847 72.032V69.6755C249.847 68.3965 250.048 67.3191 250.451 66.4432C250.868 65.5535 251.438 64.8792 252.161 64.4204C252.898 63.9617 253.739 63.7323 254.685 63.7323C255.63 63.7323 256.457 63.9547 257.166 64.3996C257.889 64.8445 258.452 65.5118 258.855 66.4015C259.259 67.2774 259.46 68.3687 259.46 69.6755V72.0111L262.359 68.4243H246.823V72.2614H265.237V70.3846C265.237 68.1324 264.799 66.1652 263.923 64.483C263.061 62.8008 261.831 61.5009 260.232 60.5834C258.647 59.6519 256.763 59.1862 254.58 59.1862C252.398 59.1862 250.5 59.6658 248.887 60.6251C247.289 61.5704 246.044 62.919 245.155 64.6707C244.279 66.4085 243.841 68.466 243.841 70.8433V70.8642C243.841 73.2415 244.279 75.2991 245.155 77.0368C246.044 78.7746 247.309 80.1162 248.95 81.0616C250.59 81.993 252.551 82.4588 254.831 82.4588ZM268.599 82H274.688V69.1542C274.688 68.1671 274.869 67.3052 275.23 66.5684C275.606 65.8315 276.127 65.2615 276.794 64.8584C277.462 64.4413 278.247 64.2328 279.151 64.2328C280.513 64.2328 281.535 64.6359 282.216 65.4423C282.912 66.2347 283.259 67.3608 283.259 68.8205V82H289.348V67.5693C289.348 64.9418 288.674 62.8912 287.326 61.4175C285.991 59.93 284.093 59.1862 281.632 59.1862C279.95 59.1862 278.539 59.5546 277.399 60.2914C276.259 61.0283 275.397 62.0362 274.813 63.3152H274.688V59.645H268.599V82ZM303.596 82.4588C305.195 82.4588 306.585 82.2502 307.767 81.8332C308.963 81.4161 309.971 80.86 310.791 80.1649C311.625 79.4698 312.285 78.7051 312.772 77.871C313.258 77.0368 313.585 76.2097 313.752 75.3894L313.815 75.16H308.226L308.184 75.2851C308.045 75.7022 307.781 76.1123 307.392 76.5155C307.002 76.9187 306.502 77.2523 305.89 77.5165C305.279 77.7806 304.556 77.9127 303.721 77.9127C302.665 77.9127 301.754 77.6833 300.99 77.2245C300.225 76.7519 299.634 76.0776 299.217 75.2017C298.814 74.3259 298.612 73.2693 298.612 72.032V69.6755C298.612 68.3965 298.814 67.3191 299.217 66.4432C299.634 65.5535 300.204 64.8792 300.927 64.4204C301.664 63.9617 302.505 63.7323 303.45 63.7323C304.396 63.7323 305.223 63.9547 305.932 64.3996C306.655 64.8445 307.218 65.5118 307.621 66.4015C308.024 67.2774 308.226 68.3687 308.226 69.6755V72.0111L311.124 68.4243H295.589V72.2614H314.002V70.3846C314.002 68.1324 313.564 66.1652 312.688 64.483C311.827 62.8008 310.596 61.5009 308.997 60.5834C307.413 59.6519 305.529 59.1862 303.346 59.1862C301.163 59.1862 299.266 59.6658 297.653 60.6251C296.054 61.5704 294.81 62.919 293.92 64.6707C293.044 66.4085 292.606 68.466 292.606 70.8433V70.8642C292.606 73.2415 293.044 75.2991 293.92 77.0368C294.81 78.7746 296.075 80.1162 297.716 81.0616C299.356 81.993 301.316 82.4588 303.596 82.4588ZM318.991 82H325.081V64.2328H329.376V59.645H324.935V58.0809C324.935 57.2746 325.171 56.6629 325.644 56.2458C326.116 55.8288 326.853 55.6202 327.854 55.6202C328.132 55.6202 328.41 55.6272 328.688 55.6411C328.966 55.655 329.21 55.6828 329.418 55.7245V51.6998C329.071 51.6302 328.612 51.5746 328.042 51.5329C327.472 51.4773 326.909 51.4495 326.353 51.4495C324.587 51.4495 323.162 51.6789 322.078 52.1377C321.007 52.5965 320.222 53.2985 319.721 54.2439C319.235 55.1893 318.991 56.3918 318.991 57.8516V59.645H315.947V64.2328H318.991V82ZM332.926 82H339.016V59.645H332.926V82ZM335.971 56.7672C336.889 56.7672 337.66 56.4544 338.286 55.8288C338.911 55.2032 339.224 54.4594 339.224 53.5974C339.224 52.7216 338.911 51.9778 338.286 51.3661C337.66 50.7405 336.889 50.4277 335.971 50.4277C335.054 50.4277 334.282 50.7405 333.656 51.3661C333.031 51.9778 332.718 52.7216 332.718 53.5974C332.718 54.4594 333.031 55.2032 333.656 55.8288C334.282 56.4544 335.054 56.7672 335.971 56.7672ZM352.2 82.4588C352.84 82.4588 353.403 82.431 353.889 82.3754C354.39 82.3337 354.807 82.285 355.141 82.2294V77.7667C354.96 77.7945 354.765 77.8223 354.557 77.8501C354.348 77.864 354.105 77.871 353.827 77.871C352.909 77.871 352.214 77.6694 351.741 77.2662C351.283 76.8492 351.053 76.1193 351.053 75.0766V64.2328H355.141V59.645H351.053V54.1813H344.901V59.645H341.794V64.2328H344.901V75.7439C344.901 78.1351 345.499 79.8521 346.695 80.8948C347.89 81.9374 349.726 82.4588 352.2 82.4588ZM367.908 82.4588C369.826 82.4588 371.516 82.1599 372.975 81.5621C374.449 80.9504 375.603 80.1023 376.437 79.0179C377.271 77.9336 377.688 76.6615 377.688 75.2017V75.1809C377.688 73.5404 377.174 72.2336 376.145 71.2604C375.13 70.2872 373.448 69.5574 371.099 69.0708L367.303 68.2575C366.552 68.0907 365.955 67.896 365.51 67.6736C365.065 67.4512 364.745 67.194 364.55 66.902C364.37 66.5962 364.279 66.2556 364.279 65.8802V65.8593C364.279 65.3727 364.418 64.9557 364.696 64.6081C364.975 64.2467 365.371 63.9686 365.885 63.774C366.4 63.5793 367.004 63.482 367.699 63.482C368.825 63.482 369.708 63.7531 370.348 64.2953C371.001 64.8236 371.377 65.4909 371.474 66.2973L371.495 66.4641H377.104V66.2556C377.063 64.9487 376.666 63.7601 375.916 62.6896C375.179 61.6191 374.115 60.7711 372.725 60.1455C371.349 59.5059 369.674 59.1862 367.699 59.1862C365.809 59.1862 364.154 59.4781 362.736 60.062C361.332 60.632 360.248 61.4384 359.483 62.4811C358.718 63.5237 358.336 64.761 358.336 66.193V66.2138C358.336 67.326 358.579 68.3131 359.066 69.1751C359.553 70.0231 360.276 70.7391 361.235 71.323C362.208 71.893 363.417 72.3309 364.863 72.6367L368.659 73.4292C369.757 73.6794 370.522 73.9853 370.953 74.3467C371.384 74.7082 371.599 75.1878 371.599 75.7856V75.8065C371.599 76.2931 371.446 76.7101 371.14 77.0577C370.848 77.4053 370.431 77.6764 369.889 77.871C369.347 78.0517 368.686 78.1421 367.908 78.1421C366.698 78.1421 365.753 77.8988 365.072 77.4122C364.391 76.9256 363.953 76.2444 363.758 75.3686L363.716 75.1809H357.773L357.794 75.3686C357.961 76.7727 358.447 78.01 359.254 79.0805C360.074 80.1371 361.207 80.9643 362.653 81.5621C364.099 82.1599 365.85 82.4588 367.908 82.4588ZM384.074 82.3545C385.02 82.3545 385.819 82.0278 386.473 81.3744C387.126 80.721 387.453 79.9216 387.453 78.9762C387.453 78.0309 387.126 77.2315 386.473 76.5781C385.819 75.9247 385.02 75.598 384.074 75.598C383.129 75.598 382.33 75.9247 381.676 76.5781C381.023 77.2315 380.696 78.0309 380.696 78.9762C380.696 79.9216 381.023 80.721 381.676 81.3744C382.33 82.0278 383.129 82.3545 384.074 82.3545Z" fill="url(#paint0_linear_60_5122)"/>
<defs>
<linearGradient id="paint0_linear_60_5122" x1="5.67508" y1="-45.967" x2="492.849" y2="241.273" gradientUnits="userSpaceOnUse">
<stop offset="0.0525986" stop-color="#8744E1"/>
<stop offset="0.417815" stop-color="#FABA6E"/>
</linearGradient>
</defs>
</svg>
