<svg width="30" height="30" viewBox="0 0 30 30" fill="none" xmlns="http://www.w3.org/2000/svg">
<circle cx="15" cy="15" r="15" fill="white"/>
<rect x="3" y="3" width="24" height="24" rx="12" fill="#4A2082"/>
<path d="M17.8591 10.4978L14.9973 13.3596L12.1383 10.5006C11.6858 10.048 10.9537 10.0463 10.5011 10.4989C10.0485 10.9515 10.0504 11.6834 10.5032 12.1362L13.3639 14.9969L10.5008 17.8601C10.0482 18.3127 10.0472 19.0476 10.5001 19.5001C10.7261 19.7265 11.0248 19.8424 11.321 19.8424C11.6177 19.8426 11.9161 19.7317 12.1421 19.5057L15.0074 16.6404L17.8642 19.4972C18.0906 19.7236 18.3854 19.8388 18.6816 19.8383C18.9781 19.8383 19.2739 19.7261 19.5003 19.4997C19.9527 19.0473 19.952 18.3142 19.4996 17.8619L16.6426 15.0048L19.5044 12.1431C19.957 11.6905 19.9538 10.9534 19.5011 10.5011C19.0485 10.0489 18.3113 10.0456 17.8591 10.4978Z" fill="#D0C8DB"/>
</svg>
