<svg width="41" height="40" viewBox="0 0 41 40" fill="none" xmlns="http://www.w3.org/2000/svg">
<rect x="0.25" width="40" height="40" rx="10" fill="#8744E1"/>
<path d="M27.25 12H13.25C12.4544 12 11.6913 12.3161 11.1287 12.8787C10.5661 13.4413 10.25 14.2044 10.25 15V25C10.25 25.7956 10.5661 26.5587 11.1287 27.1213C11.6913 27.6839 12.4544 28 13.25 28H27.25C28.0456 28 28.8087 27.6839 29.3713 27.1213C29.9339 26.5587 30.25 25.7956 30.25 25V15C30.25 14.2044 29.9339 13.4413 29.3713 12.8787C28.8087 12.3161 28.0456 12 27.25 12V12ZM26.677 14L20.85 18.8C20.6835 18.9267 20.4812 18.9976 20.272 19.0026C20.0629 19.0077 19.8574 18.9465 19.685 18.828L13.823 14H26.677ZM27.25 26H13.25C12.9848 26 12.7304 25.8946 12.5429 25.7071C12.3554 25.5196 12.25 25.2652 12.25 25V15.3L18.45 20.4C18.9659 20.7863 19.5935 20.9944 20.238 20.993C20.9051 20.992 21.5537 20.774 22.086 20.372L28.25 15.3V25C28.25 25.2652 28.1446 25.5196 27.9571 25.7071C27.7696 25.8946 27.5152 26 27.25 26Z" fill="white"/>
</svg>
