<svg width="41" height="40" viewBox="0 0 41 40" fill="none" xmlns="http://www.w3.org/2000/svg">
<path d="M0 10C0 4.47715 4.47715 0 10 0H31C36.5228 0 41 4.47715 41 10V30C41 35.5228 36.5228 40 31 40H10C4.47715 40 0 35.5228 0 30V10Z" fill="#8744E1"/>
<path d="M11.4645 22.2955C10.7145 22.2955 10.0705 22.0303 9.53267 21.5C9.00237 20.9621 8.73722 20.3182 8.73722 19.5682C8.73722 18.8258 9.00237 18.1894 9.53267 17.6591C10.0705 17.1288 10.7145 16.8636 11.4645 16.8636C12.1918 16.8636 12.8281 17.1288 13.3736 17.6591C13.919 18.1894 14.1918 18.8258 14.1918 19.5682C14.1918 20.0682 14.063 20.5265 13.8054 20.9432C13.5554 21.3523 13.2259 21.6818 12.8168 21.9318C12.4077 22.1742 11.9569 22.2955 11.4645 22.2955ZM20.9957 22.2955C20.2457 22.2955 19.6018 22.0303 19.0639 21.5C18.5336 20.9621 18.2685 20.3182 18.2685 19.5682C18.2685 18.8258 18.5336 18.1894 19.0639 17.6591C19.6018 17.1288 20.2457 16.8636 20.9957 16.8636C21.723 16.8636 22.3594 17.1288 22.9048 17.6591C23.4503 18.1894 23.723 18.8258 23.723 19.5682C23.723 20.0682 23.5942 20.5265 23.3366 20.9432C23.0866 21.3523 22.7571 21.6818 22.348 21.9318C21.9389 22.1742 21.4882 22.2955 20.9957 22.2955ZM30.527 22.2955C29.777 22.2955 29.133 22.0303 28.5952 21.5C28.0649 20.9621 27.7997 20.3182 27.7997 19.5682C27.7997 18.8258 28.0649 18.1894 28.5952 17.6591C29.133 17.1288 29.777 16.8636 30.527 16.8636C31.2543 16.8636 31.8906 17.1288 32.4361 17.6591C32.9815 18.1894 33.2543 18.8258 33.2543 19.5682C33.2543 20.0682 33.1255 20.5265 32.8679 20.9432C32.6179 21.3523 32.2884 21.6818 31.8793 21.9318C31.4702 22.1742 31.0194 22.2955 30.527 22.2955Z" fill="white"/>
</svg>
