<svg width="24" height="30" viewBox="0 0 24 30" fill="none" xmlns="http://www.w3.org/2000/svg">
<path d="M12 13.6667C13.3185 13.6667 14.6075 13.2757 15.7038 12.5432C16.8001 11.8106 17.6546 10.7694 18.1592 9.55127C18.6638 8.33309 18.7958 6.99265 18.5386 5.69944C18.2813 4.40624 17.6464 3.21835 16.714 2.286C15.7817 1.35365 14.5938 0.71871 13.3006 0.461475C12.0074 0.20424 10.667 0.336263 9.44878 0.840847C8.2306 1.34543 7.18941 2.19991 6.45687 3.29624C5.72433 4.39257 5.33333 5.6815 5.33333 7.00004C5.33545 8.7675 6.03851 10.462 7.28829 11.7118C8.53808 12.9615 10.2325 13.6646 12 13.6667ZM12 3.00004C12.7911 3.00004 13.5645 3.23464 14.2223 3.67417C14.8801 4.11369 15.3928 4.73841 15.6955 5.46931C15.9983 6.20021 16.0775 7.00448 15.9231 7.78041C15.7688 8.55633 15.3878 9.26906 14.8284 9.82847C14.269 10.3879 13.5563 10.7688 12.7804 10.9232C12.0044 11.0775 11.2002 10.9983 10.4693 10.6956C9.73836 10.3928 9.11365 9.88012 8.67412 9.22233C8.2346 8.56453 8 7.79117 8 7.00004C8 5.93918 8.42143 4.92176 9.17157 4.17162C9.92172 3.42147 10.9391 3.00004 12 3.00004ZM1.33333 29.6667H22.6667C23.0203 29.6667 23.3594 29.5262 23.6095 29.2762C23.8595 29.0261 24 28.687 24 28.3334C24 25.1508 22.7357 22.0985 20.4853 19.8481C18.2348 17.5977 15.1826 16.3334 12 16.3334C8.8174 16.3334 5.76515 17.5977 3.51472 19.8481C1.26428 22.0985 4.74244e-08 25.1508 0 28.3334C0 28.687 0.140476 29.0261 0.390524 29.2762C0.640573 29.5262 0.979711 29.6667 1.33333 29.6667ZM12 19C14.2437 19.0028 16.4115 19.8125 18.1077 21.2813C19.8038 22.75 20.9151 24.7798 21.2387 27H2.76133C3.08488 24.7798 4.19618 22.75 5.89233 21.2813C7.58848 19.8125 9.75632 19.0028 12 19Z" fill="#666666"/>
</svg>
