<svg width="37" height="35" viewBox="0 0 37 35" fill="none" xmlns="http://www.w3.org/2000/svg">
<path d="M32.6113 20.4105C33.4822 29.9513 23.2045 32.1094 17.9568 31.9958L14.021 31.6551C10.2527 31.2859 2.85006 28.5202 3.386 20.4105C3.92193 12.3008 8.88498 6.69562 11.2576 4.90672C12.2346 3.88449 14.8491 2.18077 17.9568 2.18077C21.5576 2.18077 23.7349 3.88449 25.326 5.24747C27.188 6.84253 31.7404 10.8697 32.6113 20.4105Z" stroke="#666666" stroke-width="2"/>
<path d="M4.978 13.4253C2.56628 13.1527 1.8517 12.5735 1.79587 12.3179C1.0143 11.5512 0.121067 9.0127 2.80075 4.99193C6.15036 -0.0340316 12.3471 2.43636 12.2634 4.05488" stroke="#666666" stroke-width="2"/>
<path d="M31.022 13.6061C33.4337 13.3335 34.1483 12.7542 34.2041 12.4987C34.9857 11.732 35.8789 9.19347 33.1992 5.1727C29.8496 0.146741 23.6529 2.61713 23.7366 4.23566" stroke="#666666" stroke-width="2"/>
<path d="M18.6261 2.35115C16.8396 10.1598 15.2777 23.392 32.359 18.1957" stroke="#666666" stroke-width="2"/>
<path d="M26.5869 13.5957C26.5869 14.5651 25.8188 15.3217 24.9072 15.3217C23.9956 15.3217 23.2275 14.5651 23.2275 13.5957C23.2275 12.6263 23.9956 11.8698 24.9072 11.8698C25.8188 11.8698 26.5869 12.6263 26.5869 13.5957Z" stroke="#666666" stroke-width="2"/>
<path d="M13.1895 13.5957C13.1895 14.5651 12.4214 15.3217 11.5098 15.3217C10.5982 15.3217 9.83008 14.5651 9.83008 13.5957C9.83008 12.6263 10.5982 11.8698 11.5098 11.8698C12.4214 11.8698 13.1895 12.6263 13.1895 13.5957Z" stroke="#666666" stroke-width="2"/>
<path d="M21.9771 25.6921C21.9771 27.4145 20.1961 27.2778 18.9624 26.8946C18.7805 26.8382 18.6106 26.7763 18.46 26.7143" stroke="#666666" stroke-width="2" stroke-linecap="round"/>
<path d="M14.0229 25.6921C14.0229 27.4145 15.8039 27.2778 17.0376 26.8946C17.2195 26.8382 17.3894 26.7763 17.54 26.7143" stroke="#666666" stroke-width="2" stroke-linecap="round"/>
<path d="M18.041 27.2254V22.9661" stroke="#666666" stroke-width="2"/>
<path d="M15.7709 20.2402C14.9055 21.2624 14.0793 23.3068 17.6969 23.3068C22.3193 23.4431 21.521 21.3192 20.5441 20.2402H15.7709Z" stroke="#666666" stroke-width="2" stroke-linecap="square" stroke-linejoin="round"/>
</svg>
