<svg width="41" height="40" viewBox="0 0 41 40" fill="none" xmlns="http://www.w3.org/2000/svg">
<rect x="0.5" width="40" height="40" rx="10" fill="#FABA6E"/>
<path d="M27.9401 21C27.7201 21 27.4901 20.93 27.2701 20.88C26.8246 20.7818 26.3868 20.6515 25.9601 20.49C25.4962 20.3212 24.9862 20.33 24.5284 20.5146C24.0706 20.6992 23.6972 21.0466 23.4801 21.49L23.2601 21.94C22.2861 21.3982 21.3911 20.7252 20.6001 19.94C19.8149 19.149 19.1419 18.254 18.6001 17.28L19.0201 17C19.4635 16.7829 19.8109 16.4095 19.9955 15.9517C20.1801 15.4938 20.1889 14.9839 20.0201 14.52C19.8613 14.0924 19.731 13.6548 19.6301 13.21C19.5801 12.99 19.5401 12.76 19.5101 12.53C19.3887 11.8256 19.0197 11.1877 18.4697 10.7312C17.9197 10.2747 17.2248 10.0296 16.5101 10.04H13.5101C13.0791 10.0359 12.6524 10.1248 12.2588 10.3005C11.8653 10.4762 11.5142 10.7347 11.2295 11.0583C10.9449 11.3819 10.7332 11.763 10.6091 12.1757C10.4849 12.5884 10.4512 13.023 10.5101 13.45C11.0428 17.6394 12.9561 21.5319 15.9478 24.5126C18.9394 27.4934 22.8388 29.3925 27.0301 29.91H27.4101C28.1475 29.9111 28.8595 29.6405 29.4101 29.15C29.7265 28.867 29.9792 28.5202 30.1516 28.1323C30.3239 27.7444 30.4121 27.3244 30.4101 26.9V23.9C30.3979 23.2054 30.1449 22.5365 29.6944 22.0077C29.244 21.4788 28.6239 21.1226 27.9401 21V21ZM28.4401 27C28.4399 27.142 28.4095 27.2823 28.3509 27.4116C28.2923 27.5409 28.2068 27.6563 28.1001 27.75C27.9884 27.8465 27.8577 27.9185 27.7165 27.9616C27.5753 28.0046 27.4267 28.0177 27.2801 28C23.535 27.5198 20.0563 25.8065 17.3928 23.1303C14.7293 20.4541 13.0325 16.9673 12.5701 13.22C12.5542 13.0735 12.5681 12.9253 12.6111 12.7844C12.6541 12.6434 12.7252 12.5127 12.8201 12.4C12.9138 12.2933 13.0292 12.2078 13.1585 12.1492C13.2878 12.0906 13.4281 12.0602 13.5701 12.06H16.5701C16.8026 12.0548 17.0297 12.1309 17.2122 12.2751C17.3948 12.4193 17.5213 12.6226 17.5701 12.85C17.6101 13.1233 17.6601 13.3933 17.7201 13.66C17.8356 14.1871 17.9894 14.7052 18.1801 15.21L16.7801 15.86C16.6604 15.9149 16.5527 15.9929 16.4633 16.0896C16.3738 16.1862 16.3043 16.2996 16.2588 16.4232C16.2132 16.5468 16.1926 16.6781 16.1979 16.8097C16.2033 16.9413 16.2346 17.0705 16.2901 17.19C17.7293 20.2727 20.2073 22.7508 23.2901 24.19C23.5336 24.29 23.8066 24.29 24.0501 24.19C24.1748 24.1454 24.2894 24.0764 24.3873 23.9872C24.4851 23.8979 24.5643 23.7901 24.6201 23.67L25.2401 22.27C25.7571 22.4549 26.2847 22.6085 26.8201 22.73C27.0868 22.79 27.3568 22.84 27.6301 22.88C27.8575 22.9288 28.0608 23.0553 28.205 23.2378C28.3492 23.4204 28.4253 23.6474 28.4201 23.88L28.4401 27Z" fill="white"/>
</svg>
