<svg width="25" height="25" viewBox="0 0 25 25" fill="none" xmlns="http://www.w3.org/2000/svg">
<path d="M22.0075 10.3637H14.3088V2.67146C14.3088 1.45386 13.3264 0.46666 12.1088 0.46666C10.8912 0.46666 9.90933 1.45386 9.90933 2.67199V10.3691H2.20693C0.989334 10.3691 -0.000532467 11.3563 8.6592e-07 12.5744C-0.000532467 13.1829 0.245334 13.7408 0.643734 14.1392C1.04267 14.5387 1.59307 14.7909 2.20107 14.7909H9.90933V22.4773C9.90933 23.0864 10.1509 23.6379 10.5499 24.0357C10.9488 24.4347 11.4976 24.6816 12.1067 24.6816C13.3237 24.6816 14.3088 23.6944 14.3088 22.4773V14.7904H22.0075C23.2251 14.7904 24.2123 13.7947 24.2117 12.5771C24.2112 11.36 23.224 10.3637 22.0075 10.3637Z" fill="white"/>
</svg>
