<svg width="138" height="60" viewBox="0 0 138 60" fill="none" xmlns="http://www.w3.org/2000/svg">
<g clip-path="url(#clip0_60_5875)">
<rect x="10" y="10" width="40" height="40" rx="20" fill="#8744E1"/>
<g filter="url(#filter0_d_60_5875)">
<path d="M44.6481 30.084C44.522 29.578 44.3153 29.0957 44.0358 28.6554C43.7369 28.2149 43.38 27.8168 42.9746 27.4717C42.1629 26.7695 41.1986 26.2664 40.1583 26.0024L39.7093 25.9207C39.9986 24.8126 39.8938 23.6384 39.4128 22.599C38.9318 21.5596 38.1046 20.7197 37.0726 20.223C36.0406 19.7263 34.8681 19.6037 33.7557 19.8762C32.6433 20.1486 31.6602 20.7992 30.9746 21.7166C30.5381 20.6671 29.7325 19.8136 28.7098 19.3173C27.6872 18.821 26.5182 18.7162 25.4236 19.0228H25.2603C24.8641 19.1322 24.4909 19.3119 24.1583 19.5534C23.3332 20.1064 22.7011 20.9029 22.3499 21.832C21.9987 22.7611 21.946 23.7766 22.1991 24.7371L21.546 24.6962H20.9338C19.2814 24.8114 17.7412 25.5741 16.6481 26.8187C16.6041 26.929 16.5341 27.0271 16.444 27.1044C16.444 27.1152 16.4397 27.1256 16.432 27.1333C16.4244 27.1409 16.414 27.1452 16.4032 27.1452C15.8242 27.8716 15.4696 28.751 15.3828 29.6758C15.0562 32.1248 16.6073 34.6962 19.1787 35.7575C19.0971 39.2677 19.0154 42.7779 18.9746 46.2881C22.2145 48.4459 26.0207 49.5963 29.9134 49.5942C33.3457 49.5954 36.7201 48.7096 39.7093 47.0228L39.342 37.6758C43.2603 36.7371 45.4236 33.0228 44.6481 30.084ZM33.6685 24.2881C33.9134 23.5126 34.6073 23.0228 35.2195 23.186C35.8318 23.3493 36.0766 24.1656 35.8318 24.982C35.5869 25.7983 34.893 26.2881 34.2807 26.084C33.6685 25.8799 33.4236 25.1044 33.6685 24.2881ZM25.8726 21.7983C26.444 21.5942 27.1787 22.0432 27.4644 22.8595C27.7501 23.6758 27.5052 24.4513 26.9338 24.6554C26.3624 24.8595 25.6277 24.4105 25.342 23.635C25.0562 22.8595 25.2603 22.0432 25.8726 21.7983ZM22.5256 30.5738C22.0766 31.0228 21.2195 30.8595 20.6481 30.2473C20.0766 29.635 19.995 28.7779 20.4848 28.3289C20.663 28.1664 20.8968 28.0787 21.1379 28.084H21.4236C21.7885 28.1717 22.1168 28.3715 22.3624 28.6554C22.5777 28.861 22.7275 29.1257 22.7929 29.4162C22.8582 29.7067 22.8362 30.01 22.7297 30.2881L22.5256 30.5738ZM34.7705 33.5126C33.995 35.4309 30.1175 33.4717 29.8318 33.5126C28.6481 33.5942 26.0358 35.0228 24.893 33.5126C24.3624 32.8187 24.8113 31.5534 25.7909 30.4105C26.7705 29.2677 28.5256 28.084 30.1991 28.1656C31.8726 28.2473 33.5869 29.7166 34.4032 31.186C35.2195 32.6554 35.0154 32.9003 34.7705 33.5126ZM39.3011 31.5534C38.9969 31.6667 38.6637 31.6762 38.3536 31.5802C38.0434 31.4842 37.7738 31.2882 37.5869 31.0228V30.9411C37.5632 30.9202 37.5486 30.891 37.546 30.8595C37.3828 30.2473 37.8726 29.5534 38.6889 29.3493C38.8575 29.2832 39.0388 29.2553 39.2195 29.2677C39.4758 29.2401 39.734 29.297 39.955 29.4296C40.176 29.5622 40.3477 29.7633 40.444 30.0024C40.6481 30.6146 40.1175 31.3085 39.3011 31.5534Z" fill="white"/>
<path d="M44.6481 30.084C44.522 29.578 44.3153 29.0957 44.0358 28.6554C43.7369 28.2149 43.38 27.8168 42.9746 27.4717C42.1629 26.7695 41.1986 26.2664 40.1583 26.0024L39.7093 25.9207C39.9986 24.8126 39.8938 23.6384 39.4128 22.599C38.9318 21.5596 38.1046 20.7197 37.0726 20.223C36.0406 19.7263 34.8681 19.6037 33.7557 19.8762C32.6433 20.1486 31.6602 20.7992 30.9746 21.7166C30.5381 20.6671 29.7325 19.8136 28.7098 19.3173C27.6872 18.821 26.5182 18.7162 25.4236 19.0228H25.2603C24.8641 19.1322 24.4909 19.3119 24.1583 19.5534C23.3332 20.1064 22.7011 20.9029 22.3499 21.832C21.9987 22.7611 21.946 23.7766 22.1991 24.7371L21.546 24.6962H20.9338C19.2814 24.8114 17.7412 25.5741 16.6481 26.8187C16.6041 26.929 16.5341 27.0271 16.444 27.1044C16.444 27.1152 16.4397 27.1256 16.432 27.1333C16.4244 27.1409 16.414 27.1452 16.4032 27.1452C15.8242 27.8716 15.4696 28.751 15.3828 29.6758C15.0562 32.1248 16.6073 34.6962 19.1787 35.7575C19.0971 39.2677 19.0154 42.7779 18.9746 46.2881C22.2145 48.4459 26.0207 49.5963 29.9134 49.5942C33.3457 49.5954 36.7201 48.7096 39.7093 47.0228L39.342 37.6758C43.2603 36.7371 45.4236 33.0228 44.6481 30.084ZM33.6685 24.2881C33.9134 23.5126 34.6073 23.0228 35.2195 23.186C35.8318 23.3493 36.0766 24.1656 35.8318 24.982C35.5869 25.7983 34.893 26.2881 34.2807 26.084C33.6685 25.8799 33.4236 25.1044 33.6685 24.2881ZM25.8726 21.7983C26.444 21.5942 27.1787 22.0432 27.4644 22.8595C27.7501 23.6758 27.5052 24.4513 26.9338 24.6554C26.3624 24.8595 25.6277 24.4105 25.342 23.635C25.0562 22.8595 25.2603 22.0432 25.8726 21.7983ZM22.5256 30.5738C22.0766 31.0228 21.2195 30.8595 20.6481 30.2473C20.0766 29.635 19.995 28.7779 20.4848 28.3289C20.663 28.1664 20.8968 28.0787 21.1379 28.084H21.4236C21.7885 28.1717 22.1168 28.3715 22.3624 28.6554C22.5777 28.861 22.7275 29.1257 22.7929 29.4162C22.8582 29.7067 22.8362 30.01 22.7297 30.2881L22.5256 30.5738ZM34.7705 33.5126C33.995 35.4309 30.1175 33.4717 29.8318 33.5126C28.6481 33.5942 26.0358 35.0228 24.893 33.5126C24.3624 32.8187 24.8113 31.5534 25.7909 30.4105C26.7705 29.2677 28.5256 28.084 30.1991 28.1656C31.8726 28.2473 33.5869 29.7166 34.4032 31.186C35.2195 32.6554 35.0154 32.9003 34.7705 33.5126ZM39.3011 31.5534C38.9969 31.6667 38.6637 31.6762 38.3536 31.5802C38.0434 31.4842 37.7738 31.2882 37.5869 31.0228V30.9411C37.5632 30.9202 37.5486 30.891 37.546 30.8595C37.3828 30.2473 37.8726 29.5534 38.6889 29.3493C38.8575 29.2832 39.0388 29.2553 39.2195 29.2677C39.4758 29.2401 39.734 29.297 39.955 29.4296C40.176 29.5622 40.3477 29.7633 40.444 30.0024C40.6481 30.6146 40.1175 31.3085 39.3011 31.5534Z" stroke="#B684FA" stroke-width="2.22222" stroke-linecap="round" stroke-linejoin="round"/>
</g>
<path d="M16.6482 26.8596C16.6042 26.9699 16.5342 27.0679 16.4441 27.1453C16.4441 27.1561 16.4398 27.1665 16.4321 27.1741C16.4245 27.1818 16.4141 27.1861 16.4033 27.1861L16.6482 26.8596Z" fill="white"/>
<path d="M22.7298 30.3289L22.5257 30.5738C22.0767 31.0228 21.2196 30.8595 20.689 30.2473C20.1584 29.635 19.9951 28.7779 20.4849 28.3289C20.663 28.1665 20.8969 28.0788 21.1379 28.084H21.4237C21.7886 28.1717 22.1169 28.3716 22.3624 28.6555C22.586 28.8644 22.7408 29.1362 22.8064 29.4351C22.872 29.7339 22.8453 30.0456 22.7298 30.3289Z" fill="white"/>
<path d="M34.7706 33.5126C33.9951 35.431 30.1175 33.4718 29.8318 33.5126C28.6481 33.5942 26.0359 35.0228 24.893 33.5126C24.3624 32.8187 24.8114 31.5534 25.791 30.4105C26.7706 29.2677 28.5257 28.084 30.1992 28.1656C31.8726 28.2473 33.6277 29.7167 34.4032 31.1861C35.1787 32.6554 35.0155 32.9003 34.7706 33.5126Z" fill="white"/>
<path d="M26.9338 24.6554C26.3624 24.9003 25.6277 24.4106 25.342 23.635C25.0563 22.8595 25.2604 22.0432 25.8726 21.7983C26.4849 21.5534 27.1787 22.0432 27.4645 22.8595C27.7502 23.6759 27.5053 24.4514 26.9338 24.6554Z" fill="white"/>
<path d="M35.8318 24.9819C35.5869 25.7982 34.893 26.288 34.2808 26.0839C33.6686 25.8798 33.4237 25.1043 33.6686 24.288C33.9135 23.4717 34.6073 23.0227 35.2196 23.186C35.8318 23.3492 36.0767 24.1656 35.8318 24.9819Z" fill="white"/>
<path d="M39.3012 31.5533C38.5665 31.7574 37.8726 31.5125 37.6277 31.0227C37.5872 30.9416 37.5872 30.9416 37.5466 30.8603C37.3828 30.2472 37.8726 29.5533 38.689 29.3493C38.8576 29.2831 39.0388 29.2552 39.2196 29.2676C39.4806 29.244 39.7425 29.3019 39.9692 29.4335C40.1958 29.5651 40.376 29.7639 40.4849 30.0023C40.6481 30.6146 40.1175 31.3084 39.3012 31.5533Z" fill="white"/>
<path d="M26.9338 24.6554C26.3624 24.9003 25.6277 24.4106 25.342 23.635C25.0563 22.8595 25.2604 22.0432 25.8726 21.7983C26.4849 21.5534 27.1787 22.0432 27.4645 22.8595C27.7502 23.6759 27.5053 24.4514 26.9338 24.6554Z" fill="#B684FA"/>
<path d="M25.4236 19.0228H25.2604C24.8642 19.1322 24.4909 19.3119 24.1583 19.5534C23.8583 19.4614 23.5804 19.3085 23.342 19.1044C22.7298 18.533 22.5665 17.6759 23.0155 17.2269C23.4644 16.7779 24.2808 16.8595 24.893 17.431C25.129 17.6141 25.3053 17.8631 25.3997 18.1464C25.4942 18.4297 25.5025 18.7347 25.4236 19.0228Z" fill="white"/>
<path d="M35.8318 24.9819C35.5869 25.7982 34.893 26.288 34.2808 26.0839C33.6686 25.8798 33.4237 25.1043 33.6686 24.288C33.9135 23.4717 34.6073 23.0227 35.2196 23.186C35.8318 23.3492 36.0767 24.1656 35.8318 24.9819Z" fill="#B684FA"/>
<path d="M39.3012 31.5533C38.5665 31.7574 37.8726 31.5125 37.6277 31.0227C37.5872 30.9416 37.5872 30.9416 37.5466 30.8603C37.3828 30.2472 37.8726 29.5533 38.689 29.3493C38.8576 29.2831 39.0388 29.2552 39.2196 29.2676C39.4806 29.244 39.7425 29.3019 39.9692 29.4335C40.1958 29.5651 40.376 29.7639 40.4849 30.0023C40.6481 30.6146 40.1175 31.3084 39.3012 31.5533Z" fill="#B684FA"/>
<path d="M44.9747 28.3289C44.6997 28.5259 44.3737 28.6393 44.0359 28.6554C43.749 28.2057 43.3905 27.8059 42.9747 27.4718C43.0814 27.0618 43.3265 26.7013 43.6685 26.4514C44.3624 25.9616 45.2196 26.0024 45.5869 26.533C45.9543 27.0636 45.6685 27.8391 44.9747 28.3289Z" fill="white"/>
<path d="M39.2147 19.719C39.7819 19.1018 39.863 18.2535 39.3959 17.8243C38.9289 17.3951 38.0904 17.5475 37.5233 18.1647C36.9561 18.7819 36.875 19.6302 37.3421 20.0594C37.8091 20.4886 38.6475 20.3362 39.2147 19.719Z" fill="white"/>
<path d="M22.7298 30.3289L22.5257 30.5738C22.0767 31.0228 21.2196 30.8595 20.689 30.2473C20.1584 29.635 19.9951 28.7779 20.4849 28.3289C20.663 28.1665 20.8969 28.0788 21.1379 28.084H21.4237C21.7886 28.1717 22.1169 28.3716 22.3624 28.6555C22.586 28.8644 22.7408 29.1362 22.8064 29.4351C22.872 29.7339 22.8453 30.0456 22.7298 30.3289Z" fill="#B684FA"/>
<path d="M16.6481 26.8594C16.6042 26.9698 16.5341 27.0678 16.444 27.1451C16.444 27.156 16.4397 27.1663 16.4321 27.174C16.4244 27.1817 16.414 27.186 16.4032 27.186C15.9134 27.5533 15.1379 27.39 14.5665 26.8186C13.995 26.2472 13.9134 25.3492 14.4032 24.9002C14.893 24.4513 15.7093 24.6553 16.2808 25.2676C16.4882 25.4698 16.6331 25.7273 16.6983 26.0096C16.7634 26.2918 16.746 26.5868 16.6481 26.8594Z" fill="white"/>
<path d="M34.7706 33.5126C33.9951 35.431 30.1175 33.4718 29.8318 33.5126C28.6481 33.5942 26.0359 35.0228 24.893 33.5126C24.3624 32.8187 24.8114 31.5534 25.791 30.4105C26.7706 29.2677 28.5257 28.084 30.1992 28.1656C31.8726 28.2473 33.6277 29.7167 34.4032 31.1861C35.1787 32.6554 35.0155 32.9003 34.7706 33.5126Z" fill="#B684FA"/>
<path d="M24.8522 38.533C26.2367 39.2881 27.7686 39.7337 29.342 39.8391C30.6966 39.909 32.0525 39.7292 33.342 39.3085" stroke="#B684FA" stroke-width="2.22222" stroke-linecap="round" stroke-linejoin="round"/>
</g>
<path d="M62.5469 22.4453H66.0156C66.8073 22.4453 67.5 22.2865 68.0938 21.9688C68.6875 21.651 69.1484 21.2031 69.4766 20.625C69.8099 20.0469 69.9766 19.3698 69.9766 18.5938V18.5781C69.9766 17.8073 69.8099 17.1328 69.4766 16.5547C69.1484 15.9766 68.6875 15.5286 68.0938 15.2109C67.5 14.888 66.8073 14.7266 66.0156 14.7266H62.5469V16.5938H65.4375C66.1146 16.5938 66.6406 16.7656 67.0156 17.1094C67.3958 17.4531 67.5859 17.9453 67.5859 18.5859V18.6016C67.5859 19.2422 67.3958 19.737 67.0156 20.0859C66.6406 20.4297 66.1146 20.6016 65.4375 20.6016H62.5469V22.4453ZM61.3672 26H63.7266V14.7266H61.3672V26ZM75.4688 26.1797C76.099 26.1797 76.6432 26.1016 77.1016 25.9453C77.5651 25.7839 77.9505 25.5755 78.2578 25.3203C78.5703 25.0651 78.8151 24.7917 78.9922 24.5C79.1693 24.2031 79.2917 23.9193 79.3594 23.6484L79.375 23.5703H77.25L77.2266 23.6172C77.1745 23.7266 77.0755 23.849 76.9297 23.9844C76.7891 24.1146 76.6016 24.2292 76.3672 24.3281C76.1328 24.4271 75.849 24.4766 75.5156 24.4766C75.1042 24.4766 74.75 24.3854 74.4531 24.2031C74.1562 24.0208 73.9271 23.7578 73.7656 23.4141C73.6042 23.0703 73.5234 22.6562 73.5234 22.1719V21.25C73.5234 20.75 73.6042 20.3281 73.7656 19.9844C73.9323 19.6354 74.1562 19.3724 74.4375 19.1953C74.724 19.013 75.0495 18.9219 75.4141 18.9219C75.7839 18.9219 76.1068 19.0104 76.3828 19.1875C76.6641 19.3594 76.8828 19.6172 77.0391 19.9609C77.2005 20.3047 77.2812 20.7344 77.2812 21.25V22.1641L78.3516 20.8125H72.4062V22.2422H79.4453V21.5312C79.4453 20.6615 79.2812 19.9036 78.9531 19.2578C78.625 18.612 78.1562 18.1094 77.5469 17.75C76.9375 17.3906 76.2135 17.2109 75.375 17.2109C74.5417 17.2109 73.8151 17.3958 73.1953 17.7656C72.5807 18.1354 72.1042 18.6562 71.7656 19.3281C71.4323 20 71.2656 20.7917 71.2656 21.7031V21.7109C71.2656 22.6328 71.4349 23.4271 71.7734 24.0938C72.112 24.7604 72.5938 25.276 73.2188 25.6406C73.849 26 74.599 26.1797 75.4688 26.1797ZM84.8828 26.0312C85.1068 26.0312 85.3177 26.0208 85.5156 26C85.7135 25.9792 85.8828 25.9557 86.0234 25.9297V24.2344C85.9141 24.2448 85.8099 24.2552 85.7109 24.2656C85.6172 24.2708 85.4974 24.2734 85.3516 24.2734C84.9661 24.2734 84.6849 24.1849 84.5078 24.0078C84.3359 23.8255 84.25 23.5417 84.25 23.1562V19.1172H86.0234V17.3984H84.25V15.3438H81.9453V17.3984H80.6172V19.1172H81.9453V23.6797C81.9453 24.513 82.1745 25.1146 82.6328 25.4844C83.0911 25.849 83.8411 26.0312 84.8828 26.0312ZM91.2656 26.1797C92 26.1797 92.651 26.0651 93.2188 25.8359C93.7865 25.6016 94.2318 25.2734 94.5547 24.8516C94.8776 24.4297 95.0391 23.9349 95.0391 23.3672V23.3594C95.0391 22.724 94.8333 22.2188 94.4219 21.8438C94.0104 21.4688 93.375 21.1875 92.5156 21L91.0859 20.6953C90.7891 20.6276 90.5521 20.5521 90.375 20.4688C90.1979 20.3854 90.0703 20.2865 89.9922 20.1719C89.9141 20.0573 89.875 19.9245 89.875 19.7734V19.7656C89.875 19.5729 89.9323 19.4062 90.0469 19.2656C90.1667 19.125 90.3281 19.0156 90.5312 18.9375C90.7344 18.8594 90.9661 18.8203 91.2266 18.8203C91.6536 18.8203 91.9922 18.9115 92.2422 19.0938C92.4922 19.2708 92.6484 19.4766 92.7109 19.7109L92.7188 19.75H94.8359V19.7188C94.8047 19.2552 94.6458 18.8359 94.3594 18.4609C94.0781 18.0807 93.6745 17.7786 93.1484 17.5547C92.6224 17.3255 91.9844 17.2109 91.2344 17.2109C90.5208 17.2109 89.8932 17.3229 89.3516 17.5469C88.8151 17.7708 88.3958 18.0859 88.0938 18.4922C87.7969 18.8932 87.6484 19.3646 87.6484 19.9062V19.9141C87.6484 20.3411 87.737 20.7161 87.9141 21.0391C88.0964 21.362 88.3698 21.6354 88.7344 21.8594C89.099 22.0781 89.5547 22.2448 90.1016 22.3594L91.5391 22.6641C91.9766 22.763 92.2891 22.888 92.4766 23.0391C92.6641 23.1901 92.7578 23.3802 92.7578 23.6094V23.625C92.7578 23.8125 92.6953 23.9766 92.5703 24.1172C92.4453 24.2578 92.2734 24.3698 92.0547 24.4531C91.8359 24.5312 91.5807 24.5703 91.2891 24.5703C90.8411 24.5703 90.4844 24.4844 90.2188 24.3125C89.9583 24.1406 89.7812 23.9219 89.6875 23.6562L89.6719 23.625H87.4297L87.4375 23.6562C87.4896 24.1458 87.6693 24.5807 87.9766 24.9609C88.2891 25.3411 88.7188 25.6406 89.2656 25.8594C89.8177 26.0729 90.4844 26.1797 91.2656 26.1797ZM62.5469 45H66.4297C67.237 45 67.9297 44.8698 68.5078 44.6094C69.0911 44.3438 69.5391 43.9714 69.8516 43.4922C70.1693 43.0078 70.3281 42.4375 70.3281 41.7812V41.7656C70.3281 41.2865 70.2161 40.8516 69.9922 40.4609C69.7734 40.0703 69.4688 39.7526 69.0781 39.5078C68.6927 39.263 68.25 39.1224 67.75 39.0859V38.9453C68.1354 38.888 68.4818 38.7448 68.7891 38.5156C69.0964 38.2865 69.3385 38 69.5156 37.6562C69.6979 37.3125 69.7891 36.9427 69.7891 36.5469V36.5312C69.7891 35.9531 69.6484 35.4557 69.3672 35.0391C69.0911 34.6172 68.6927 34.2943 68.1719 34.0703C67.6562 33.8411 67.0312 33.7266 66.2969 33.7266H62.5469V35.4766H65.6953C66.2578 35.4766 66.6927 35.6068 67 35.8672C67.3125 36.1224 67.4688 36.4792 67.4688 36.9375V36.9531C67.4688 37.4167 67.2995 37.776 66.9609 38.0312C66.6224 38.2865 66.1354 38.4141 65.5 38.4141H62.5469V39.9688H65.7734C66.237 39.9688 66.6276 40.0312 66.9453 40.1562C67.2682 40.276 67.5104 40.4557 67.6719 40.6953C67.8385 40.9349 67.9219 41.2292 67.9219 41.5781V41.5938C67.9219 42.1302 67.7422 42.5391 67.3828 42.8203C67.0286 43.1016 66.5104 43.2422 65.8281 43.2422H62.5469V45ZM61.3672 45H63.7266V33.7266H61.3672V45ZM76.0156 45.1797C76.6458 45.1797 77.1901 45.1016 77.6484 44.9453C78.112 44.7839 78.4974 44.5755 78.8047 44.3203C79.1172 44.0651 79.362 43.7917 79.5391 43.5C79.7161 43.2031 79.8385 42.9193 79.9062 42.6484L79.9219 42.5703H77.7969L77.7734 42.6172C77.7214 42.7266 77.6224 42.849 77.4766 42.9844C77.3359 43.1146 77.1484 43.2292 76.9141 43.3281C76.6797 43.4271 76.3958 43.4766 76.0625 43.4766C75.651 43.4766 75.2969 43.3854 75 43.2031C74.7031 43.0208 74.474 42.7578 74.3125 42.4141C74.151 42.0703 74.0703 41.6562 74.0703 41.1719V40.25C74.0703 39.75 74.151 39.3281 74.3125 38.9844C74.4792 38.6354 74.7031 38.3724 74.9844 38.1953C75.2708 38.013 75.5964 37.9219 75.9609 37.9219C76.3307 37.9219 76.6536 38.0104 76.9297 38.1875C77.2109 38.3594 77.4297 38.6172 77.5859 38.9609C77.7474 39.3047 77.8281 39.7344 77.8281 40.25V41.1641L78.8984 39.8125H72.9531V41.2422H79.9922V40.5312C79.9922 39.6615 79.8281 38.9036 79.5 38.2578C79.1719 37.612 78.7031 37.1094 78.0938 36.75C77.4844 36.3906 76.7604 36.2109 75.9219 36.2109C75.0885 36.2109 74.362 36.3958 73.7422 36.7656C73.1276 37.1354 72.651 37.6562 72.3125 38.3281C71.9792 39 71.8125 39.7917 71.8125 40.7031V40.7109C71.8125 41.6328 71.9818 42.4271 72.3203 43.0938C72.6589 43.7604 73.1406 44.276 73.7656 44.6406C74.3958 45 75.1458 45.1797 76.0156 45.1797ZM81.8594 45H84.1406V40.0234C84.1406 39.6328 84.2083 39.2943 84.3438 39.0078C84.4844 38.7214 84.6797 38.5 84.9297 38.3438C85.1849 38.1823 85.487 38.1016 85.8359 38.1016C86.3776 38.1016 86.776 38.2578 87.0312 38.5703C87.2865 38.8828 87.4141 39.3438 87.4141 39.9531V45H89.6953V39.4375C89.6953 38.4062 89.4427 37.612 88.9375 37.0547C88.4375 36.4922 87.7083 36.2109 86.75 36.2109C86.1354 36.2109 85.6198 36.3464 85.2031 36.6172C84.7865 36.888 84.4792 37.2578 84.2812 37.7266H84.1406V36.3984H81.8594V45ZM95.6875 45.1797C96.3177 45.1797 96.862 45.1016 97.3203 44.9453C97.7839 44.7839 98.1693 44.5755 98.4766 44.3203C98.7891 44.0651 99.0339 43.7917 99.2109 43.5C99.388 43.2031 99.5104 42.9193 99.5781 42.6484L99.5938 42.5703H97.4688L97.4453 42.6172C97.3932 42.7266 97.2943 42.849 97.1484 42.9844C97.0078 43.1146 96.8203 43.2292 96.5859 43.3281C96.3516 43.4271 96.0677 43.4766 95.7344 43.4766C95.3229 43.4766 94.9688 43.3854 94.6719 43.2031C94.375 43.0208 94.1458 42.7578 93.9844 42.4141C93.8229 42.0703 93.7422 41.6562 93.7422 41.1719V40.25C93.7422 39.75 93.8229 39.3281 93.9844 38.9844C94.151 38.6354 94.375 38.3724 94.6562 38.1953C94.9427 38.013 95.2682 37.9219 95.6328 37.9219C96.0026 37.9219 96.3255 38.0104 96.6016 38.1875C96.8828 38.3594 97.1016 38.6172 97.2578 38.9609C97.4193 39.3047 97.5 39.7344 97.5 40.25V41.1641L98.5703 39.8125H92.625V41.2422H99.6641V40.5312C99.6641 39.6615 99.5 38.9036 99.1719 38.2578C98.8438 37.612 98.375 37.1094 97.7656 36.75C97.1562 36.3906 96.4323 36.2109 95.5938 36.2109C94.7604 36.2109 94.0339 36.3958 93.4141 36.7656C92.7995 37.1354 92.3229 37.6562 91.9844 38.3281C91.651 39 91.4844 39.7917 91.4844 40.7031V40.7109C91.4844 41.6328 91.6536 42.4271 91.9922 43.0938C92.3307 43.7604 92.8125 44.276 93.4375 44.6406C94.0677 45 94.8177 45.1797 95.6875 45.1797ZM102.195 45H104.477V38.1172H106.25V36.3984H104.43V35.75C104.43 35.375 104.521 35.0885 104.703 34.8906C104.885 34.6875 105.198 34.5859 105.641 34.5859C105.786 34.5859 105.917 34.5911 106.031 34.6016C106.151 34.6068 106.247 34.6172 106.32 34.6328V33.1094C106.154 33.0833 105.974 33.0625 105.781 33.0469C105.594 33.0312 105.383 33.0234 105.148 33.0234C104.456 33.0234 103.891 33.1198 103.453 33.3125C103.021 33.5 102.703 33.7839 102.5 34.1641C102.297 34.5443 102.195 35.0208 102.195 35.5938V36.3984H100.805V38.1172H102.195V45ZM108.078 45H110.359V36.3984H108.078V45ZM109.227 35.0781C109.581 35.0781 109.883 34.9557 110.133 34.7109C110.383 34.4609 110.508 34.1615 110.508 33.8125C110.508 33.4583 110.383 33.1589 110.133 32.9141C109.883 32.6641 109.581 32.5391 109.227 32.5391C108.878 32.5391 108.576 32.6641 108.32 32.9141C108.065 33.1589 107.938 33.4583 107.938 33.8125C107.938 34.1615 108.065 34.4609 108.32 34.7109C108.576 34.9557 108.878 35.0781 109.227 35.0781ZM116.227 45.0312C116.451 45.0312 116.661 45.0208 116.859 45C117.057 44.9792 117.227 44.9557 117.367 44.9297V43.2344C117.258 43.2448 117.154 43.2552 117.055 43.2656C116.961 43.2708 116.841 43.2734 116.695 43.2734C116.31 43.2734 116.029 43.1849 115.852 43.0078C115.68 42.8255 115.594 42.5417 115.594 42.1562V38.1172H117.367V36.3984H115.594V34.3438H113.289V36.3984H111.961V38.1172H113.289V42.6797C113.289 43.513 113.518 44.1146 113.977 44.4844C114.435 44.849 115.185 45.0312 116.227 45.0312ZM122.609 45.1797C123.344 45.1797 123.995 45.0651 124.562 44.8359C125.13 44.6016 125.576 44.2734 125.898 43.8516C126.221 43.4297 126.383 42.9349 126.383 42.3672V42.3594C126.383 41.724 126.177 41.2188 125.766 40.8438C125.354 40.4688 124.719 40.1875 123.859 40L122.43 39.6953C122.133 39.6276 121.896 39.5521 121.719 39.4688C121.542 39.3854 121.414 39.2865 121.336 39.1719C121.258 39.0573 121.219 38.9245 121.219 38.7734V38.7656C121.219 38.5729 121.276 38.4062 121.391 38.2656C121.51 38.125 121.672 38.0156 121.875 37.9375C122.078 37.8594 122.31 37.8203 122.57 37.8203C122.997 37.8203 123.336 37.9115 123.586 38.0938C123.836 38.2708 123.992 38.4766 124.055 38.7109L124.062 38.75H126.18V38.7188C126.148 38.2552 125.99 37.8359 125.703 37.4609C125.422 37.0807 125.018 36.7786 124.492 36.5547C123.966 36.3255 123.328 36.2109 122.578 36.2109C121.865 36.2109 121.237 36.3229 120.695 36.5469C120.159 36.7708 119.74 37.0859 119.438 37.4922C119.141 37.8932 118.992 38.3646 118.992 38.9062V38.9141C118.992 39.3411 119.081 39.7161 119.258 40.0391C119.44 40.362 119.714 40.6354 120.078 40.8594C120.443 41.0781 120.898 41.2448 121.445 41.3594L122.883 41.6641C123.32 41.763 123.633 41.888 123.82 42.0391C124.008 42.1901 124.102 42.3802 124.102 42.6094V42.625C124.102 42.8125 124.039 42.9766 123.914 43.1172C123.789 43.2578 123.617 43.3698 123.398 43.4531C123.18 43.5312 122.924 43.5703 122.633 43.5703C122.185 43.5703 121.828 43.4844 121.562 43.3125C121.302 43.1406 121.125 42.9219 121.031 42.6562L121.016 42.625H118.773L118.781 42.6562C118.833 43.1458 119.013 43.5807 119.32 43.9609C119.633 44.3411 120.062 44.6406 120.609 44.8594C121.161 45.0729 121.828 45.1797 122.609 45.1797Z" fill="#1F2122"/>
<path d="M102.356 26H102.693L104.563 19.6816H104.598L106.468 26H106.805L108.772 18.9541H108.377L106.644 25.3311H106.614L104.759 18.9541H104.402L102.547 25.3311H102.518L100.784 18.9541H100.389L102.356 26ZM110.184 26H110.56V20.7412H110.184V26ZM110.374 19.5547C110.465 19.5547 110.542 19.5221 110.604 19.457C110.669 19.3919 110.701 19.3154 110.701 19.2275C110.701 19.1364 110.669 19.0599 110.604 18.998C110.542 18.9329 110.465 18.9004 110.374 18.9004C110.286 18.9004 110.21 18.9329 110.145 18.998C110.079 19.0599 110.047 19.1364 110.047 19.2275C110.047 19.3154 110.079 19.3919 110.145 19.457C110.21 19.5221 110.286 19.5547 110.374 19.5547ZM113.899 26.0342C113.974 26.0342 114.043 26.0309 114.104 26.0244C114.17 26.0179 114.235 26.0098 114.3 26V25.6729C114.248 25.6761 114.191 25.681 114.129 25.6875C114.07 25.6908 114.005 25.6924 113.934 25.6924C113.608 25.6924 113.375 25.6143 113.235 25.458C113.099 25.3018 113.03 25.0527 113.03 24.7109V21.0732H114.3V20.7412H113.03V19.374H112.645V20.7412H111.78V21.0732H112.645V24.7695C112.645 25.2155 112.742 25.5378 112.938 25.7363C113.133 25.9349 113.453 26.0342 113.899 26.0342ZM115.789 26H116.165V22.8652C116.165 22.5007 116.243 22.1784 116.399 21.8984C116.556 21.6185 116.769 21.4004 117.039 21.2441C117.312 21.0846 117.623 21.0049 117.972 21.0049C118.473 21.0049 118.855 21.1481 119.119 21.4346C119.386 21.7178 119.52 22.1279 119.52 22.665V26H119.891V22.5625C119.891 22.1654 119.816 21.8252 119.666 21.542C119.52 21.2588 119.308 21.0423 119.031 20.8926C118.758 20.7396 118.427 20.6631 118.04 20.6631C117.607 20.6631 117.229 20.7673 116.907 20.9756C116.588 21.1839 116.352 21.4736 116.199 21.8447H116.165V18.6465H115.789V26Z" fill="#6A6A6A"/>
<defs>
<filter id="filter0_d_60_5875" x="9.78364" y="17.7393" width="40.5786" height="41.8549" filterUnits="userSpaceOnUse" color-interpolation-filters="sRGB">
<feFlood flood-opacity="0" result="BackgroundImageFix"/>
<feColorMatrix in="SourceAlpha" type="matrix" values="0 0 0 0 0 0 0 0 0 0 0 0 0 0 0 0 0 0 127 0" result="hardAlpha"/>
<feOffset dy="4.44444"/>
<feGaussianBlur stdDeviation="2.22222"/>
<feComposite in2="hardAlpha" operator="out"/>
<feColorMatrix type="matrix" values="0 0 0 0 0 0 0 0 0 0 0 0 0 0 0 0 0 0 0.25 0"/>
<feBlend mode="normal" in2="BackgroundImageFix" result="effect1_dropShadow_60_5875"/>
<feBlend mode="normal" in="SourceGraphic" in2="effect1_dropShadow_60_5875" result="shape"/>
</filter>
<clipPath id="clip0_60_5875">
<rect x="10" y="10" width="40" height="40" rx="20" fill="white"/>
</clipPath>
</defs>
</svg>
