<svg width="40" height="40" viewBox="0 0 40 40" fill="none" xmlns="http://www.w3.org/2000/svg">
<rect width="40" height="40" rx="10" fill="#8744E1"/>
<path d="M15.9037 19.4621C17.2671 19.4606 18.3718 18.4123 18.3731 17.1188V16.3321C18.3667 15.0422 17.2631 14 15.9037 14C14.5443 14 13.4407 15.0422 13.434 16.3322V17.1189C13.4356 18.4124 14.5403 19.4606 15.9037 19.4621ZM14.2287 16.3323C14.234 15.4583 14.9824 14.7524 15.9035 14.7524C16.8246 14.7524 17.5727 15.4583 17.578 16.3323V17.1188C17.5771 17.996 16.8279 18.707 15.9035 18.708C14.979 18.7069 14.2298 17.996 14.2287 17.1188V16.3323ZM18.4024 20.108H17.879C17.7925 20.108 17.7084 20.1348 17.6394 20.1843C17.5705 20.2338 17.5204 20.3033 17.4969 20.3822L16.9293 22.2802L16.6219 21.7591L16.9852 20.6581C17.0038 20.6017 17.0082 20.5418 16.9979 20.4835C16.9877 20.4251 16.9631 20.3698 16.9262 20.3221C16.8892 20.2745 16.841 20.2357 16.7854 20.209C16.7297 20.1823 16.6682 20.1684 16.6059 20.1684H15.2829C15.2206 20.1684 15.1591 20.1823 15.1034 20.209C15.0478 20.2357 14.9996 20.2745 14.9626 20.3221C14.9257 20.3698 14.9011 20.4251 14.8909 20.4835C14.8806 20.5418 14.885 20.6017 14.9036 20.6581L15.2691 21.7654L15.0256 22.2115L14.525 20.39C14.5029 20.3093 14.4532 20.2378 14.3836 20.1867C14.314 20.1357 14.2286 20.108 14.1406 20.108H13.5507C13.1959 20.108 12.8449 20.1782 12.5203 20.3142C12.1957 20.4502 11.9045 20.649 11.6655 20.8978C11.4265 21.1467 11.2448 21.4402 11.1321 21.7595C11.0194 22.0789 10.9781 22.417 11.0109 22.7523V26.6229C11.0109 26.8312 11.189 27 11.4084 27L20.5443 26.9989C20.7636 26.9989 20.9418 26.8301 20.9418 26.6218V22.752C20.9746 22.4168 20.9334 22.0787 20.8207 21.7595C20.7081 21.4402 20.5264 21.1467 20.2874 20.8979C20.0484 20.649 19.7573 20.4502 19.4328 20.3141C19.1082 20.1781 18.7573 20.108 18.4024 20.108ZM16.0649 20.9227L15.9443 21.2876L15.8239 20.9227H16.0649ZM20.1486 22.6958C20.1473 22.7085 20.1466 22.7212 20.1466 22.7339V26.2446L11.8056 26.2457V22.7337C11.8056 22.721 11.8049 22.7083 11.8036 22.6956C11.7789 22.4639 11.8057 22.2298 11.8823 22.0085C11.9588 21.7873 12.0834 21.5837 12.248 21.4109C12.4127 21.2381 12.6136 21.1 12.838 21.0055C13.0623 20.911 13.305 20.8622 13.5505 20.8623H13.8332L14.5175 23.3522C14.5371 23.4239 14.5785 23.4884 14.6365 23.5378C14.6945 23.5873 14.7666 23.6194 14.8437 23.6303C14.9209 23.6411 14.9996 23.6302 15.0703 23.5989C15.1409 23.5675 15.2003 23.5172 15.241 23.4541C15.2458 23.4463 15.2507 23.4386 15.2552 23.4305L15.939 22.1781H15.958L16.7035 23.4415C16.7419 23.5066 16.7997 23.5594 16.8697 23.5932C16.9397 23.6271 17.0187 23.6405 17.0967 23.6317C17.1747 23.623 17.2483 23.5925 17.3081 23.5442C17.3679 23.4958 17.4113 23.4318 17.4328 23.3601L18.1795 20.8623H18.4024C18.8988 20.8623 19.3719 21.0618 19.7046 21.4112C20.0373 21.7605 20.1987 22.2273 20.1486 22.6958ZM22.5371 17.6774H26.3324C26.4367 17.6757 26.536 17.6352 26.6091 17.5647C26.6822 17.4942 26.7232 17.3992 26.7232 17.3002C26.7232 17.2013 26.6822 17.1063 26.6091 17.0358C26.536 16.9652 26.4367 16.9248 26.3324 16.9231H22.5371C22.3177 16.9231 22.1396 17.0921 22.1396 17.3002C22.1396 17.5086 22.3177 17.6774 22.5371 17.6774ZM29.7389 20.2244H22.5371C22.4329 20.2261 22.3335 20.2666 22.2604 20.3371C22.1873 20.4077 22.1463 20.5026 22.1463 20.6016C22.1463 20.7005 22.1873 20.7955 22.2604 20.866C22.3335 20.9366 22.4329 20.977 22.5371 20.9787H29.7392C29.8435 20.977 29.9428 20.9366 30.0159 20.866C30.089 20.7955 30.13 20.7005 30.13 20.6016C30.13 20.5026 30.089 20.4077 30.0159 20.3371C29.9428 20.2666 29.8432 20.2261 29.7389 20.2244ZM29.7389 23.5255H22.5371C22.4329 23.5272 22.3335 23.5677 22.2604 23.6382C22.1873 23.7088 22.1463 23.8037 22.1463 23.9027C22.1463 24.0016 22.1873 24.0966 22.2604 24.1671C22.3335 24.2377 22.4329 24.2781 22.5371 24.2798H29.7392C29.8435 24.2781 29.9428 24.2377 30.0159 24.1671C30.089 24.0966 30.13 24.0016 30.13 23.9027C30.13 23.8037 30.089 23.7088 30.0159 23.6382C29.9428 23.5677 29.8432 23.5272 29.7389 23.5255Z" fill="white"/>
</svg>
