<svg width="31" height="32" viewBox="0 0 31 32" fill="none" xmlns="http://www.w3.org/2000/svg">
<path d="M26.1287 22.6059C26.8092 21.738 27.1826 20.6573 27.1875 19.5417C27.1875 18.2266 26.6805 16.9655 25.778 16.0356C24.8754 15.1057 23.6514 14.5833 22.375 14.5833C21.0986 14.5833 19.8746 15.1057 18.972 16.0356C18.0695 16.9655 17.5625 18.2266 17.5625 19.5417C17.5674 20.6573 17.9408 21.738 18.6212 22.6059C17.36 23.2729 16.2855 24.2615 15.5 25.4775C14.7145 24.2615 13.64 23.2729 12.3787 22.6059C13.0592 21.738 13.4326 20.6573 13.4375 19.5417C13.4375 18.2266 12.9305 16.9655 12.028 16.0356C11.1254 15.1057 9.90135 14.5833 8.625 14.5833C7.34865 14.5833 6.12457 15.1057 5.22205 16.0356C4.31953 16.9655 3.8125 18.2266 3.8125 19.5417C3.81738 20.6573 4.19079 21.738 4.87125 22.6059C3.51903 23.3178 2.38374 24.4003 1.59041 25.7344C0.797084 27.0684 0.376506 28.6021 0.375 30.1667C0.375 30.5424 0.519866 30.9027 0.777728 31.1684C1.03559 31.4341 1.38533 31.5833 1.75 31.5833H29.25C29.6147 31.5833 29.9644 31.4341 30.2223 31.1684C30.4801 30.9027 30.625 30.5424 30.625 30.1667C30.6235 28.6021 30.2029 27.0684 29.4096 25.7344C28.6163 24.4003 27.481 23.3178 26.1287 22.6059ZM8.625 17.4167C9.03292 17.4167 9.43169 17.5413 9.77086 17.7748C10.11 18.0083 10.3744 18.3402 10.5305 18.7285C10.6866 19.1168 10.7275 19.544 10.6479 19.9562C10.5683 20.3684 10.3719 20.7471 10.0834 21.0443C9.79496 21.3415 9.42746 21.5438 9.02737 21.6258C8.62729 21.7078 8.21259 21.6657 7.83571 21.5049C7.45884 21.3441 7.13672 21.0717 6.91009 20.7222C6.68346 20.3728 6.5625 19.9619 6.5625 19.5417C6.5625 18.9781 6.7798 18.4376 7.16659 18.0391C7.55339 17.6405 8.07799 17.4167 8.625 17.4167ZM3.29825 28.75C3.60212 27.5323 4.2904 26.4534 5.25474 25.6829C6.21908 24.9125 7.40471 24.4944 8.625 24.4944C9.84529 24.4944 11.0309 24.9125 11.9953 25.6829C12.9596 26.4534 13.6479 27.5323 13.9517 28.75H3.29825ZM22.375 17.4167C22.7829 17.4167 23.1817 17.5413 23.5209 17.7748C23.86 18.0083 24.1244 18.3402 24.2805 18.7285C24.4366 19.1168 24.4774 19.544 24.3979 19.9562C24.3183 20.3684 24.1219 20.7471 23.8334 21.0443C23.545 21.3415 23.1775 21.5438 22.7774 21.6258C22.3773 21.7078 21.9626 21.6657 21.5857 21.5049C21.2088 21.3441 20.8867 21.0717 20.6601 20.7222C20.4335 20.3728 20.3125 19.9619 20.3125 19.5417C20.3125 18.9781 20.5298 18.4376 20.9166 18.0391C21.3034 17.6405 21.828 17.4167 22.375 17.4167ZM17.0496 28.75C17.3544 27.5336 18.0429 26.456 19.0069 25.6867C19.9709 24.9174 21.1557 24.4999 22.375 24.4999C23.5943 24.4999 24.7791 24.9174 25.7431 25.6867C26.7071 26.456 27.3956 27.5336 27.7004 28.75H17.0496ZM8.9 10.9C8.6812 11.2006 8.58725 11.5784 8.63882 11.9503C8.69039 12.3223 8.88326 12.6579 9.175 12.8833C9.46674 13.1088 9.83345 13.2056 10.1945 13.1524C10.5555 13.0993 10.8812 12.9006 11.1 12.6C11.6123 11.8962 12.2766 11.325 13.0403 10.9316C13.804 10.5382 14.6462 10.3333 15.5 10.3333C16.3538 10.3333 17.196 10.5382 17.9597 10.9316C18.7234 11.325 19.3877 11.8962 19.9 12.6C20.0083 12.7488 20.1441 12.8742 20.2994 12.969C20.4548 13.0638 20.6268 13.1261 20.8055 13.1524C20.9843 13.1787 21.1663 13.1685 21.3412 13.1223C21.5162 13.0762 21.6805 12.995 21.825 12.8833C21.9695 12.7717 22.0912 12.6319 22.1831 12.4718C22.2751 12.3117 22.3356 12.1345 22.3612 11.9503C22.3867 11.7662 22.3768 11.5786 22.332 11.3984C22.2872 11.2182 22.2083 11.0488 22.1 10.9C21.3479 9.86569 20.3769 9.02169 19.2606 8.43217C19.9374 7.5654 20.3083 6.48744 20.3125 5.375C20.3125 4.05997 19.8055 2.7988 18.903 1.86893C18.0004 0.93906 16.7764 0.416666 15.5 0.416666C14.2236 0.416666 12.9996 0.93906 12.097 1.86893C11.1945 2.7988 10.6875 4.05997 10.6875 5.375C10.692 6.48695 11.0629 7.56437 11.7394 8.43075C10.6228 9.02043 9.65169 9.86497 8.9 10.9ZM15.5 3.25C15.9079 3.25 16.3067 3.37463 16.6459 3.60813C16.985 3.84162 17.2494 4.1735 17.4055 4.5618C17.5616 4.95009 17.6024 5.37736 17.5229 5.78957C17.4433 6.20178 17.2469 6.58041 16.9584 6.8776C16.67 7.17479 16.3025 7.37717 15.9024 7.45917C15.5023 7.54116 15.0876 7.49908 14.7107 7.33824C14.3338 7.17741 14.0117 6.90504 13.7851 6.55559C13.5585 6.20613 13.4375 5.79528 13.4375 5.375C13.4375 4.81141 13.6548 4.27091 14.0416 3.8724C14.4284 3.47388 14.953 3.25 15.5 3.25Z" fill="#666666" />
</svg>
